<?xml version="1.0" standalone="no"?>
<!DOCTYPE svg PUBLIC "-//W3C//DTD SVG 1.1//EN" "http://www.w3.org/Graphics/SVG/1.1/DTD/svg11.dtd" >
<svg xmlns="http://www.w3.org/2000/svg">
<metadata></metadata>
<defs>
<font id="CatwingRegular" horiz-adv-x="1312" >
<font-face units-per-em="2048" ascent="1536" descent="-512" />
<missing-glyph horiz-adv-x="862" />
<glyph unicode="&#x28;C&#x29;" horiz-adv-x="1536" d="M258 522q0 187 26 341.5t81.5 281.5t140 214.5t206 135t273.5 47.5q438 0 438 -538q0 -1031 -714 -1031q-225 0 -338 134t-113 415zM406 555q0 -120 24.5 -205t70.5 -131.5t103 -67t131 -20.5q121 0 217 45t169.5 141t113 259t39.5 385q0 118 -23 201.5t-67 130.5 t-99.5 68t-128.5 21q-96 0 -176.5 -26t-150.5 -87.5t-118.5 -155t-76.5 -235.5t-28 -323zM547 590q0 156 50 294.5t142.5 225t204.5 86.5q72 0 117 -22t45 -54q0 -11 -6 -20l-43 -86q-9 -15 -23 -15q-15 0 -24 9q-30 20 -47.5 25t-57.5 5q-79 0 -144 -121t-65 -303 q0 -84 23 -111.5t72 -27.5q47 0 84 17.5t81 52.5q4 4 15 4q7 0 12 -8l16 -105q-28 -50 -94 -85.5t-157 -35.5q-87 0 -144 64t-57 211z" />
<glyph unicode="&#x28;R&#x29;" horiz-adv-x="1536" d="M260 524q0 187 25.5 341t80.5 281t139.5 214t206.5 134.5t277 47.5q434 0 434 -538q0 -154 -15.5 -285t-49.5 -248.5t-90 -207.5t-133 -155.5t-184 -100t-238 -34.5q-226 0 -339.5 135t-113.5 416zM406 559q0 -98 17 -173t46 -123t72 -78t91 -42t107 -12q98 0 178.5 28 t148 91t113.5 159t71.5 236.5t25.5 319.5q0 116 -23 198.5t-66 129.5t-98.5 68t-127.5 21q-95 0 -176 -26t-152 -87t-120.5 -154t-78 -234.5t-28.5 -321.5zM528 371l134 759q6 44 47 44h215q111 0 157.5 -42t46.5 -118q0 -187 -167 -264l83 -357l5 -20q0 -33 -41 -33h-70 q-35 0 -41 35l-72 309h-86l-53 -301q-9 -43 -49 -43h-74q-35 0 -35 31zM762 815h69q130 0 130 162q0 45 -20 59.5t-56 14.5h-82z" />
<glyph horiz-adv-x="0" />
<glyph horiz-adv-x="2048" />
<glyph horiz-adv-x="862" />
<glyph unicode=" "  horiz-adv-x="862" />
<glyph unicode="&#x09;" horiz-adv-x="862" />
<glyph unicode="&#xa0;" horiz-adv-x="862" />
<glyph unicode="!" horiz-adv-x="768" d="M252 86q0 71 42 115.5t105 44.5q41 0 67 -30t26 -79q0 -68 -42.5 -115t-97.5 -47q-46 0 -73 31t-27 80zM313 532q53 550 142 1027q2 12 11 22t21 10h213q21 0 21 -22q-155 -538 -217 -1034q-1 -12 -11.5 -20.5t-21.5 -8.5h-135q-23 0 -23 26z" />
<glyph unicode="&#x22;" horiz-adv-x="921" d="M313 942q56 308 76 541q2 12 11.5 21t21.5 9h125q24 0 24 -30q-32 -262 -118 -539q-12 -29 -33 -29h-84q-23 0 -23 27zM664 942q54 298 75 541q2 12 11.5 21t21.5 9h125q12 0 18.5 -8.5t6.5 -21.5q-31 -257 -119 -539q-12 -29 -33 -29h-84q-22 0 -22 27z" />
<glyph unicode="#" horiz-adv-x="1316" d="M207 403l18 111q6 31 35 31h141l134 446h-142q-24 0 -24 21l1 2q1 2 1 6l18 110q12 31 35 31h164l100 324q6 28 33 28h98q21 0 21 -28l-101 -324h246l98 324q6 28 37 28h94q21 0 21 -28l-98 -324h102q21 0 21 -31l-19 -110q-10 -29 -33 -29h-125l-133 -446h123 q13 0 17 -6.5t4 -24.5l-19 -111q-2 -11 -11.5 -19.5t-21.5 -8.5h-143l-106 -346q-3 -29 -31 -29h-98q-23 0 -23 29l107 346h-248l-103 -346q-1 -12 -11 -20.5t-21 -8.5h-99q-12 0 -16 7t-4 22l102 346h-119q-22 0 -22 28zM553 545h248l133 446h-248z" />
<glyph unicode="$" horiz-adv-x="1136" d="M188 299q0 3 4 10.5t5 9.5l39 93q11 20 30 20q8 0 23 -6q87 -53 229 -53q37 0 59 0.5t57.5 4t57 9.5t48 19t41 30.5t24.5 45.5t10 63q0 42 -26.5 74t-69 53t-94 41t-102.5 43.5t-93.5 53t-69 78t-26.5 111.5q0 123 94.5 215.5t237.5 112.5l28 158q1 13 11.5 20.5 t21.5 7.5h88q12 0 12 -28l-26 -150q106 -4 160.5 -23t54.5 -44q0 -14 -8 -27l-23 -72q-11 -20 -31 -20q-2 0 -67 11t-176 11q-106 0 -158.5 -37.5t-52.5 -103.5q0 -39 26.5 -69t69 -49.5t93.5 -38t102.5 -42t94 -53.5t69 -80.5t26.5 -115.5q0 -158 -107 -254.5t-272 -114.5 l-33 -184q-3 -29 -28 -29h-88q-17 0 -17 29l33 180q-117 0 -199 28.5t-82 61.5z" />
<glyph unicode="%" horiz-adv-x="1536" d="M274 20q0 5 17 35l950 1430q19 28 47 28h68q28 0 28 -18q0 -6 -2.5 -12t-7 -13t-6.5 -12l-948 -1427q-22 -31 -49 -31h-70q-27 0 -27 20zM373 1059q0 111 39 221t110 184t152 74q172 0 172 -242q0 -65 -8.5 -128t-30 -128.5t-54.5 -114t-86 -79.5t-120 -31 q-174 0 -174 244zM496 1079q0 -127 75 -127q41 0 77.5 56.5t56.5 132t20 139.5q0 123 -74 123q-41 0 -77.5 -54t-57 -128.5t-20.5 -141.5zM817 213q0 111 39.5 221t111 184t152.5 74q172 0 172 -241q0 -65 -8.5 -128.5t-30 -128.5t-54.5 -114t-86.5 -80t-121.5 -31 q-174 0 -174 244zM940 233q0 -127 76 -127q40 0 77 56.5t56.5 132t19.5 139.5q0 123 -73 123q-42 0 -79 -54t-57 -128.5t-20 -141.5z" />
<glyph unicode="&#x26;" horiz-adv-x="1536" d="M301 291q0 169 77 304t220 253q-37 129 -37 264q0 187 90 308.5t236 121.5q105 0 163 -61.5t58 -167.5q0 -65 -22 -128.5t-52.5 -110t-80 -97.5t-85.5 -80.5t-88 -69.5q12 -29 37.5 -88t37.5 -87.5t31.5 -71t36.5 -74.5t35 -62q91 190 123 338q7 27 39 27q3 0 23 -4 l88 -17q14 -3 14 -24q0 -31 -22 -86q-90 -227 -179 -356q9 -13 47 -55.5t63.5 -77.5t25.5 -54q0 -11 -9 -20l-79 -103q-12 -12 -23 -12q-26 0 -68.5 53t-74.5 113q-165 -193 -361 -193q-134 0 -199 89t-65 229zM479 307q0 -85 25.5 -126.5t83.5 -41.5q150 0 268 144 q-87 151 -207 434q-82 -82 -126 -174t-44 -236zM727 1112q0 -105 14 -160q203 160 203 334q0 90 -74 90q-64 0 -103.5 -64.5t-39.5 -199.5z" />
<glyph unicode="'" horiz-adv-x="571" d="M313 942q56 308 76 541q2 12 11.5 21t21.5 9h125q24 0 24 -30q-32 -262 -118 -539q-12 -29 -33 -29h-84q-23 0 -23 27z" />
<glyph unicode="(" horiz-adv-x="854" d="M186 168q0 130 20 289t64.5 336.5t107 334.5t157 286t204.5 188q14 0 21 -11l43 -96q2 -2 2 -14q0 -13 -12 -29q-106 -79 -204.5 -285t-159 -470.5t-60.5 -503.5q0 -199 36 -351.5t107 -187.5q10 -10 10 -23q0 -9 -8 -22l-68 -94q-6 -13 -26 -13q-6 0 -8 2 q-78 36 -130.5 142t-74 237.5t-21.5 284.5z" />
<glyph unicode=")" horiz-adv-x="854" d="M72 -391v8v7.5t0.5 6t1 6t2 4.5t3.5 5t5.5 4t7.5 4q119 51 226 252t169 473t62 532q0 179 -26.5 333t-76.5 208q-6 6 -6 18q0 15 13 25l73 96q11 11 25 11q65 -42 107.5 -152.5t58.5 -235.5t16 -264q0 -150 -20.5 -318t-67 -349.5t-113.5 -336t-169 -275t-224 -167.5 q-2 -2 -10 -2q-17 0 -23 13z" />
<glyph unicode="*" horiz-adv-x="1148" d="M340 1157q0 10 4 14l74 142q9 20 26 20q13 0 15 -2l203 -119l10 269q12 32 30 32h160q23 0 23 -24l-86 -279l250 117q4 4 12 4q17 0 20 -22l17 -142q-2 -2 -2.5 -9.5t-6 -16.5t-20.5 -15l-256 -53l131 -199q6 -6 6 -14q0 -19 -18 -31l-139 -102q-12 -6 -21 -6 q-12 0 -18 16l-66 238l-164 -234q-13 -16 -22 -16q-10 0 -17 10l-98 96q-10 3 -10 19q0 17 10 27l209 190l-240 66q-16 6 -16 24z" />
<glyph unicode="+" horiz-adv-x="1191" d="M240 688l1 2q1 2 1 6l20 115q6 31 33 31h305l66 362q3 29 32 29h119q25 0 25 -29l-66 -362h295q11 0 15.5 -5.5t5 -9.5t0.5 -16l-21 -115q-6 -28 -31 -28h-295l-63 -369q-1 -10 -12.5 -19.5t-22.5 -9.5h-119q-22 0 -22 29l63 369h-305q-24 0 -24 20z" />
<glyph unicode="," horiz-adv-x="696" d="M84 -283q0 11 6 23q76 152 125 266t82 236q6 20 31 20q13 0 26 -8l105 -53q12 -6 12 -23q0 -12 -2 -14q-83 -237 -268 -488q-11 -16 -39 -16l-60 31q-18 9 -18 26z" />
<glyph unicode="-" horiz-adv-x="1136" d="M356 532q0 9 2 11l19 110q6 29 33 29h436q20 0 20 -29l-18 -110q-6 -29 -33 -29h-436q-23 0 -23 18z" />
<glyph unicode="." horiz-adv-x="624" d="M152 88q0 68 42 113t103 45q43 0 69.5 -30t26.5 -79q0 -68 -43 -115t-100 -47q-44 0 -71 31.5t-27 81.5z" />
<glyph unicode="/" horiz-adv-x="1226" d="M86 -258q0 9 8 22l979 1731q9 18 25 18h108q21 0 21 -20q0 -19 -4 -23l-977 -1730q-19 -19 -29 -19h-106q-25 0 -25 21z" />
<glyph unicode="0" horiz-adv-x="1177" d="M266 432q0 295 68.5 547t198 407.5t292.5 155.5q77 0 135 -37.5t91 -103t49 -145t16 -173.5q0 -220 -40.5 -421t-112.5 -352.5t-177.5 -242t-228.5 -90.5q-77 0 -135 36.5t-91 101t-49 144t-16 173.5zM436 442q0 -137 38 -222t112 -85q70 0 135.5 68t115 187.5 t79.5 297.5t30 385q0 138 -38 225.5t-111 87.5q-71 0 -136.5 -69.5t-115.5 -190.5t-79.5 -300t-29.5 -384z" />
<glyph unicode="1" horiz-adv-x="1177" d="M401 1278q0 19 31 41q243 146 440 223h86q13 0 17 -6.5t4 -24.5q-172 -689 -264 -1482q-3 -29 -31 -29h-123q-22 0 -22 29q97 766 229 1284q-140 -56 -270 -139q-28 -19 -45 -19q-15 0 -25 23l-22 77q-5 20 -5 23z" />
<glyph unicode="2" horiz-adv-x="1177" d="M246 29l14 80q28 153 104.5 278t200.5 242q28 26 78 66t90 71t86.5 78.5t78 95.5t52.5 116t21 144q0 184 -164 184q-123 0 -195 -105.5t-90 -287.5q-3 -30 -43 -30l-71 8q-23 5 -28 10.5t-5 30.5q0 66 17 137.5t54 142t87.5 126.5t124 91t157.5 35q141 0 230.5 -89.5 t89.5 -252.5q0 -108 -33 -201t-88 -161.5t-121.5 -130.5t-137 -120.5t-131.5 -118t-108 -137.5t-63 -165h594q10 0 16 -9t6 -20l-20 -108q-3 -29 -31 -29h-748q-24 0 -24 29z" />
<glyph unicode="3" horiz-adv-x="1177" d="M176 96q0 20 17 37l61 66q14 14 33 14q16 0 24 -8q36 -32 115 -51t141 -19q162 0 262.5 121.5t100.5 304.5q0 107 -52.5 161t-142.5 54h-188q-35 0 -35 31l12 76q6 33 45 39q184 25 272.5 100t88.5 219q0 67 -40.5 105t-117.5 38q-71 0 -124 -28t-113 -88 q-13 -13 -25 -13q-15 0 -27 15l-47 55q-8 8 -8 25q0 22 14 36q146 156 353 156q147 0 228 -75.5t81 -211.5q0 -145 -76.5 -238.5t-189.5 -131.5q114 -13 189 -94.5t75 -229.5q0 -118 -37 -222.5t-105.5 -185.5t-177.5 -128.5t-243 -47.5q-70 0 -119 4t-116 25.5t-114 61.5 q-14 11 -14 28z" />
<glyph unicode="4" horiz-adv-x="1177" d="M186 410l21 116q352 568 731 969q18 18 35 18h108q23 0 23 -28q-50 -445 -150 -940h154q18 0 18 -29l-18 -106q-3 -31 -29 -31h-159q-38 -186 -82 -350q-3 -29 -31 -29h-125q-12 0 -16 7t-4 22q33 123 83 350h-538q-21 0 -21 31zM410 545h372q78 368 113 678 q-244 -293 -485 -678z" />
<glyph unicode="5" horiz-adv-x="1177" d="M205 106q0 15 10 25l53 72q8 14 31 14q17 0 25 -8q51 -40 102.5 -57t144.5 -17q128 0 217 127t89 324q0 100 -46.5 152.5t-168.5 52.5q-72 0 -124.5 -9.5t-74 -21.5t-42.5 -21.5t-38 -9.5q-20 0 -37 10l-55 35q-15 15 -15 31l160 682q3 26 31 26h557q23 0 23 -24 l-21 -113q-3 -28 -31 -28h-415l-107 -447q94 53 252 53q165 0 246.5 -96.5t81.5 -253.5q0 -172 -63 -314.5t-180 -227.5t-265 -85q-215 0 -328 105q-12 9 -12 24z" />
<glyph unicode="6" horiz-adv-x="1177" d="M250 432q0 160 47.5 324.5t129.5 306t191 261t232 196.5q36 22 53 22q14 0 23 -12l61 -80q10 -17 10 -29q0 -25 -36 -45q-158 -86 -294.5 -252t-199.5 -372q133 151 313 151q165 0 255.5 -105t90.5 -292q0 -142 -62.5 -263t-176 -193.5t-252.5 -72.5q-102 0 -178 36.5 t-120.5 101t-65.5 144t-21 173.5zM416 432q0 -161 57.5 -229t196.5 -68q126 0 206 100t80 254q0 137 -45 192.5t-161 55.5q-216 0 -330 -202q-4 -66 -4 -103z" />
<glyph unicode="7" horiz-adv-x="1177" d="M350 1370q0 4 1 6q1 1 1 2l19 107q2 11 11 19.5t21 8.5h727q23 0 23 -24v-4l-20 -109q-360 -698 -555 -1356q-6 -20 -31 -20h-137q-23 0 -23 20q0 6 2 12l2 7q224 712 559 1309h-575q-25 0 -25 22z" />
<glyph unicode="8" horiz-adv-x="1177" d="M160 295q0 170 104.5 308t267.5 216q-72 66 -116.5 149t-44.5 171q0 171 120.5 287t317.5 116q139 0 248 -45.5t117 -93.5l4 -35q0 -18 -25 -18q-28 0 -73.5 10.5t-84.5 15.5q90 -64 90 -205q0 -196 -254 -358q53 -45 85 -78.5t63.5 -79t46 -99t14.5 -118.5 q0 -53 -17 -111.5t-57.5 -121.5t-99.5 -113t-152.5 -82.5t-207.5 -32.5q-180 0 -263 86t-83 232zM330 309q0 -174 209 -174q148 0 237.5 83.5t89.5 203.5q0 100 -55.5 179.5t-146.5 129.5q-61 -29 -117.5 -70t-106.5 -94t-80 -120.5t-30 -137.5zM547 1149q0 -151 151 -264 q135 89 185.5 152.5t50.5 154.5q0 31 -14 61.5t-27.5 50.5t-13.5 27q0 12 10 22.5t43 26.5q-22 4 -92 4h-47q-123 0 -184.5 -60.5t-61.5 -174.5z" />
<glyph unicode="9" horiz-adv-x="1177" d="M231 983q0 103 31 202t87 179t143 129t190 49q102 0 178 -36.5t120.5 -101t65.5 -144t21 -173.5q0 -598 -432 -1075q-30 -35 -55 -35q-16 0 -19 9l-80 61q-20 14 -20 31q0 21 24 45q269 258 365 598q-131 -146 -279 -146q-163 0 -251.5 112t-88.5 296zM401 983 q0 -242 185 -242q51 0 101 15t107.5 59t98.5 113q8 68 8 159q0 161 -57.5 229t-196.5 68q-82 0 -139 -57t-82 -145t-25 -199z" />
<glyph unicode=":" horiz-adv-x="622" d="M152 88q0 67 43 112.5t100 45.5q44 0 70 -29.5t26 -79.5q0 -68 -41.5 -115t-101.5 -47q-43 0 -69.5 31.5t-26.5 81.5zM307 963q0 67 42.5 112t99.5 45q44 0 70 -29t26 -79q0 -68 -42 -115t-102 -47q-42 0 -68 31.5t-26 81.5z" />
<glyph unicode=";" horiz-adv-x="712" d="M84 -283q0 11 6 23q76 152 125 266t82 236q6 20 31 20q13 0 26 -8l105 -53q12 -6 12 -23q0 -12 -2 -14q-83 -237 -268 -488q-11 -16 -39 -16l-60 31q-18 9 -18 26zM393 961q0 69 41 114t103 45q43 0 68.5 -29.5t25.5 -78.5q0 -67 -42.5 -114.5t-99.5 -47.5q-46 0 -71 30 t-25 81z" />
<glyph unicode="&#x3c;" horiz-adv-x="1191" d="M293 686l18 107q3 17 21 26l737 391q15 9 25 9q20 0 20 -29l-22 -133q-3 -20 -19 -29l-586 -289l484 -288q10 -7 10 -19q0 -3 -1 -5t-1 -5l-23 -129q-6 -31 -30 -31q-8 0 -21 8l-602 392q-10 3 -10 24z" />
<glyph unicode="=" horiz-adv-x="1261" d="M223 500l1 2q1 2 1 6l19 110q12 31 35 31h813q20 0 20 -31l-18 -110q-6 -29 -33 -29h-813q-25 0 -25 21zM299 928l1 2q1 2 1 6l18 111q11 30 35 30h813q21 0 21 -30l-19 -111q-6 -29 -32 -29h-813q-25 0 -25 21z" />
<glyph unicode="&#x3e;" horiz-adv-x="1191" d="M246 283l24 141q5 19 19 29l588 288l-486 289q-8 5 -8 29l23 129q6 31 32 31q10 0 19 -9l602 -391q8 -6 8 -24l-18 -107q-3 -15 -17 -26l-739 -392q-13 -8 -23 -8q-24 0 -24 21z" />
<glyph unicode="?" horiz-adv-x="1146" d="M322 1444q0 31 69 54.5t152.5 33.5t156.5 10q57 0 109 -6t109.5 -24t99 -47.5t69 -81t27.5 -119.5q0 -85 -28 -155t-72.5 -117t-98.5 -88t-108 -77.5t-98.5 -75t-72.5 -91t-28 -115.5q0 -54 -6 -72t-31 -18h-110q-25 0 -25 75q0 84 27.5 154t71 117t96.5 88.5t106 78 t96.5 75t71 90.5t27.5 114q0 129 -277 129q-63 0 -148 -15t-140 -34q-21 0 -27 31l-14 67zM342 88q0 67 44 112.5t101 45.5q43 0 70 -30t27 -79q0 -68 -43.5 -115t-100.5 -47q-43 0 -70.5 32t-27.5 81z" />
<glyph unicode="@" horiz-adv-x="1470" d="M219 406q0 188 31.5 362.5t97.5 326.5t160.5 264.5t227.5 177.5t290 65q188 0 267 -83t79 -245q0 -92 -22 -221l-121 -686q-6 -29 -35 -29h-342q-82 0 -135 10.5t-93.5 38.5t-58.5 80.5t-18 134.5q0 109 29.5 206.5t86 174.5t148.5 122.5t209 45.5q136 0 180 -59l12 73 q7 44 7 74q0 95 -53 151t-169 56q-179 0 -318 -125t-216.5 -356t-77.5 -533q0 -80 10 -138.5t33.5 -101.5t56 -70.5t83.5 -43.5t110 -22.5t141 -6.5q121 0 225.5 22t165.5 64q3 6 17 6q12 0 18 -16l43 -80q0 -1 -1 -4t-1 -4q0 -3 1 -5t1 -3q0 -15 -14 -23q-100 -65 -211 -90 t-262 -25q-220 0 -348 55.5t-181 165.5t-53 294zM719 657q0 -95 41 -129t137 -34h197l69 393q-21 53 -58 80.5t-110 27.5q-128 0 -202 -91.5t-74 -246.5z" />
<glyph unicode="A" d="M43 20q0 14 8 27q86 228 150.5 386t152 347.5t188 362t218.5 338.5q22 32 57 32h119q19 0 25 -20q172 -489 210 -1446q0 -3 1.5 -8t1.5 -8q0 -31 -33 -31h-129q-18 0 -21 20q-23 378 -24 390h-592q-83 -198 -152 -390q-9 -20 -30 -20h-127q-23 0 -23 20zM444 575h510 q-40 441 -118 758q-229 -380 -392 -758z" />
<glyph unicode="B" horiz-adv-x="1392" d="M219 29q0 25 14 116q7 48 36.5 266.5t45.5 324t47.5 264.5t63.5 260q18 55 40.5 80t51.5 38q-132 -10 -260 -30q-20 0 -20 22l8 43q5 31 99 62t216 49t217 18q116 0 199.5 -15.5t147.5 -51.5t96 -99.5t32 -156.5q0 -135 -111 -247t-265 -147q176 -35 279.5 -129.5 t103.5 -259.5q0 -92 -28 -172.5t-83 -145.5t-147 -103t-211 -38q-23 0 -83 8t-131 33.5t-71 61.5q0 1 0.5 3.5l1.5 7.5t2 11l8 39q9 49 45 49q11 0 49 -14q103 -43 215 -43q122 0 191 82.5t69 220.5q0 55 -25 107t-73.5 97t-133 72t-191.5 27h-89q-28 0 -36.5 8.5t-8.5 28.5 l7 43q6 39 67 39q115 0 225.5 51.5t179 133.5t68.5 167q0 47 -13 78.5t-37 51.5t-68.5 31t-96 14.5t-131.5 3.5q-83 0 -115 -5q-145 -598 -219 -1353q-3 -31 -39 -31h-118q-21 0 -21 29z" />
<glyph unicode="C" horiz-adv-x="1314" d="M197 571q0 228 52 413t144 306.5t218.5 186.5t275.5 65q82 0 152 -17t116.5 -55t46.5 -90q0 -76 -36 -215t-74 -139h-91q-22 0 -22 27q3 14 18.5 81t23 112t7.5 79q0 51 -158 51q-229 0 -366 -200.5t-137 -581.5q0 -117 29.5 -206.5t82 -142.5t119 -79.5t145.5 -26.5 q99 0 194.5 45t143.5 103q13 16 31 16q21 0 33 -27l14 -32q8 -13 8 -37q0 -14 -15.5 -40t-51.5 -60t-86 -63.5t-129 -50t-170 -20.5q-234 0 -376 160.5t-142 437.5z" />
<glyph unicode="D" horiz-adv-x="1351" d="M211 29q0 25 14 116q4 30 20 146t22 157t21 144.5t23.5 153.5t23.5 136.5t26.5 141.5t26.5 119.5t30 116.5q8 28 33 61t59 57q-49 -4 -135.5 -15t-124.5 -15q-21 0 -21 22l9 43q5 31 99.5 62t216.5 49t216 18q63 0 116 -3.5t111.5 -14.5t104.5 -28.5t89.5 -47.5 t72.5 -69.5t46 -96.5t17 -127q0 -89 -14 -185t-40.5 -194.5t-68.5 -193t-95 -181.5t-123 -160t-150 -127t-178 -84t-205 -30h-222q-12 0 -16 7t-4 22zM403 166h76q114 0 221 59t188 157.5t143 222t94 258t32 259.5q0 54 -12 95.5t-30 69.5t-51 47.5t-63.5 30t-80 16t-88 7 t-99.5 1.5q-27 0 -125 -5v-4q-125 -498 -205 -1214z" />
<glyph unicode="E" horiz-adv-x="1253" d="M133 375q0 161 113 276.5t278 141.5q-111 47 -169 120.5t-58 190.5q0 84 36 156.5t96 123t137 87t159 54t162 17.5q27 0 54 -1.5t65 -6.5t69 -15.5t60 -26.5t45 -42t16 -59q0 -50 -34.5 -207.5t-69.5 -157.5h-91q-22 0 -22 27q47 206 47 258q0 39 -38.5 52t-117.5 13 q-43 0 -87 -6t-90 -18.5t-85.5 -34.5t-71 -51t-49.5 -71t-18 -91q0 -115 66.5 -183.5t214.5 -68.5h61q28 0 36.5 -8.5t8.5 -28.5l-6 -43q-6 -39 -68 -39q-90 0 -171.5 -20t-150 -59.5t-109 -107.5t-40.5 -157q0 -68 33.5 -118.5t88.5 -78t115 -40.5t124 -13q102 0 224 46.5 t167 101.5q13 16 31 16q20 0 32 -27l15 -32q8 -13 8 -37q0 -13 -21 -40t-65 -60.5t-102 -63t-142.5 -50t-175.5 -20.5q-82 0 -156 14t-139.5 45t-112.5 77t-74.5 114t-27.5 152z" />
<glyph unicode="F" horiz-adv-x="1236" d="M193 698l8 43q8 52 161 88q64 355 103 519h-115q-8 0 -15 7t-7 17l20 113q2 11 11.5 19.5t19.5 8.5h835q10 0 16.5 -8.5t6.5 -19.5l-18 -107q-11 -30 -33 -30h-549q-17 -87 -47 -254t-45 -242h534q10 0 15.5 -9t5.5 -20l-19 -104q-12 -31 -32 -31h-535 q-85 -502 -106 -659q-3 -29 -29 -29h-127q-21 0 -21 29q38 266 107 657q-76 -4 -125 -10q-20 0 -20 22z" />
<glyph unicode="G" horiz-adv-x="1392" d="M201 571q0 228 52 413t144 306.5t218.5 186.5t275.5 65q44 0 89 -5.5t99.5 -19.5t88.5 -46t34 -78q0 -61 -35 -214t-71 -153h-90q-23 0 -23 27q2 9 13.5 60t16.5 76.5t11 65t6 64.5q0 57 -156 57q-229 0 -366 -200.5t-137 -581.5q0 -241 79 -348t261 -107 q82 0 149.5 28.5t111.5 75t74 109.5t43 129.5t13 136.5h-352q-16 0 -19.5 7t-3.5 24l10 49q0 6 4 15t17 22t33.5 23.5t58 18t86.5 7.5h272q66 0 66 -61q0 -121 -21.5 -230t-68 -204.5t-115 -165.5t-167.5 -110t-220 -40q-233 0 -357 156.5t-124 441.5z" />
<glyph unicode="H" horiz-adv-x="1333" d="M141 717l9 43q8 52 161 88q70 384 140 637q12 28 36 28h119q10 0 16.5 -8.5t6.5 -19.5q-95 -368 -135 -615h503q62 306 154 615q2 11 10.5 19.5t18.5 8.5h127q20 0 20 -28q-200 -712 -280 -1456q-3 -29 -29 -29h-127q-21 0 -21 29q40 366 97 678h-504q-56 -331 -105 -678 q-3 -29 -28 -29h-127q-21 0 -21 29q61 425 105 676q-63 -3 -125 -11q-21 0 -21 23z" />
<glyph unicode="I" horiz-adv-x="679" d="M213 31q111 870 254 1452q11 30 35 30h133q20 0 20 -30q-82 -328 -141.5 -663.5t-124.5 -788.5q-12 -31 -35 -31h-121q-20 0 -20 31z" />
<glyph unicode="J" horiz-adv-x="1230" d="M27 82q0 8 2 10l16 68q6 28 37 28q9 0 41 -11t92.5 -22.5t138.5 -11.5q58 0 107 15.5t89 43t73.5 76t59.5 102t48.5 135.5t39 162t33 195t29 221.5t27.5 254.5h-307q-21 0 -21 22l21 115q2 11 10.5 19.5t18.5 8.5h628q21 0 21 -30l-19 -107q-6 -28 -32 -28h-133 q-17 -160 -30 -269.5t-33.5 -241t-41.5 -219.5t-52 -186.5t-67.5 -161t-86 -123.5t-109 -95t-135.5 -54.5t-166 -20.5q-128 0 -213.5 33t-85.5 72z" />
<glyph unicode="K" horiz-adv-x="1384" d="M176 29q55 426 116.5 774.5t151.5 681.5q12 28 37 28h119q10 0 16.5 -8.5t6.5 -19.5q-90 -346 -138 -606q414 272 670 610q18 24 70 24h137q22 0 22 -22q0 -15 -14 -29q-224 -276 -561 -536q12 -134 56 -267t109 -244.5t135.5 -202.5t147.5 -163q0 -3 1.5 -9t1.5 -9 q0 -31 -29 -31h-146q-27 0 -39.5 5t-25.5 22q-133 141 -236 364t-110 428q-143 -109 -228 -164q-25 -153 -56.5 -369.5t-37.5 -256.5q-3 -29 -28 -29h-127q-21 0 -21 29z" />
<glyph unicode="L" horiz-adv-x="1087" d="M158 29l18 116q3 21 27 21h20q90 766 234 1319q12 28 37 28h118q10 0 16.5 -8.5t6.5 -19.5q-181 -703 -234 -1319h611q22 0 22 -29l-20 -108q-3 -29 -31 -29h-803q-22 0 -22 29z" />
<glyph unicode="M" horiz-adv-x="1423" d="M143 29q26 377 91.5 723.5t193.5 732.5q12 28 29 28h178q24 0 24 -20q0 -262 23 -579.5t55 -510.5q74 207 169 533t151 557q3 20 28 20h218q22 0 22 -28q-23 -831 -90 -1456q-3 -29 -31 -29h-110q-21 0 -21 29q67 675 78 1253q-49 -213 -161 -566t-197 -534 q-11 -20 -31 -20h-125q-21 0 -21 20q-100 490 -100 948q0 54 4 152q-154 -505 -217 -1253q-3 -29 -29 -29h-108q-23 0 -23 29z" />
<glyph unicode="N" horiz-adv-x="1425" d="M156 29q180 794 260 1456q2 11 11 19.5t19 8.5h164q20 0 23 -16q57 -333 157.5 -657t223.5 -574q136 632 209 1219q3 28 30 28h109q24 0 24 -28q-120 -873 -258 -1456q-6 -29 -32 -29h-125q-19 0 -25 16q-139 282 -264 649.5t-141 587.5q-61 -452 -219 -1224 q-6 -29 -29 -29h-115q-22 0 -22 29z" />
<glyph unicode="O" d="M203 465q0 195 44 377t129 324.5t199 211.5q-29 -4 -71.5 -10t-66 -9.5t-49 -6t-42.5 -2.5h-9t-7 1t-5 1.5t-3 1.5l-2 2t-1 3v3.5v4.5v5l5 29q7 58 167.5 99.5t352.5 41.5q115 0 194 -35t125 -107t66 -169.5t20 -233.5q0 -134 -20.5 -270.5t-69 -273t-118.5 -241 t-178 -170t-240 -65.5q-202 0 -311 133t-109 355zM371 469q0 -169 65 -247.5t197 -78.5q107 0 194.5 80t141.5 208t83 277t29 298q0 108 -12 175t-46 116.5t-95 70.5t-158 21q-22 0 -104 -5l32 -12q15 -3 15 -18q0 -10 -11 -21q-87 -61 -163.5 -201t-122 -317.5 t-45.5 -345.5z" />
<glyph unicode="P" horiz-adv-x="1230" d="M211 29q0 25 14 116q7 48 36.5 266.5t45.5 324t47.5 264.5t63.5 260q4 26 30.5 59.5t61.5 58.5q-49 -4 -135.5 -15t-124.5 -15q-21 0 -21 22l9 43q5 31 99 62t216 49t217 18q434 0 434 -364q0 -130 -57 -242t-151.5 -188t-218.5 -119t-257 -43q-52 0 -61 18 q-38 -240 -70 -573q-3 -31 -39 -31h-119q-12 0 -16 7t-4 22zM475 713q22 16 55 16q90 0 177.5 30t159.5 84.5t116.5 139.5t44.5 186q0 120 -67.5 170t-237.5 50q-17 0 -115 -5q-57 -230 -133 -671z" />
<glyph unicode="Q" horiz-adv-x="1316" d="M203 737q0 106 21 214t69.5 215t118.5 190t176 134.5t233 51.5q168 0 279.5 -149.5t111.5 -415.5q0 -663 -591 -1014q288 -52 639 -184q16 -6 16 -23q0 -3 -1 -6t-1 -6l-51 -98q-6 -21 -27 -21q-8 0 -10 2q-353 150 -694 226q-26 3 -29 34l-6 66q0 11 1.5 17.5t12.5 18.5 t33 29q101 76 179.5 150.5t148 165.5t115 187t71.5 213t26 247q0 395 -256 395q-88 0 -159.5 -39.5t-118.5 -103.5t-79 -149t-46 -173t-14 -178q0 -165 48 -288t118 -191q18 -18 18 -35q0 -26 -44.5 -40.5t-78.5 -14.5q-31 0 -59 31q-76 83 -123 223.5t-47 318.5z" />
<glyph unicode="R" horiz-adv-x="1292" d="M211 29q0 25 14 116q7 48 36.5 266.5t45.5 324t47.5 264.5t63.5 260q16 64 92 118q-49 -4 -135.5 -15t-124.5 -15q-21 0 -21 22l9 43q5 31 99 62t216 49t217 18q434 0 434 -364q0 -235 -133.5 -400t-351.5 -190q94 -166 225.5 -318t257.5 -221l6 -18q2 -2 2 -13 q0 -18 -22 -18h-166q-24 0 -37 5.5t-35 21.5q-46 29 -142 142t-179.5 248t-83.5 201v52q9 39 67 39q180 0 298 127t118 333q0 120 -67.5 170t-237.5 50q-17 0 -115 -5q-144 -591 -219 -1353q-3 -31 -39 -31h-119q-12 0 -16 7t-4 22z" />
<glyph unicode="S" horiz-adv-x="1294" d="M86 131q0 13 6 25l39 84q13 22 29 22q12 0 24 -6q51 -34 172 -73.5t238 -39.5q71 0 127.5 8t115 29.5t91.5 68.5t33 116q0 64 -36.5 121t-95 102.5t-129.5 90t-142 91.5t-129.5 98.5t-95 120t-36.5 146.5q0 188 160.5 297.5t462.5 109.5q42 0 87 -5.5t99 -19.5t88.5 -46 t34.5 -78q0 -47 -35 -207t-70 -160h-90q-22 0 -22 27q3 14 18.5 81t23 112t7.5 79q0 51 -158 51q-216 0 -326 -64t-110 -167q0 -51 22.5 -95.5t60.5 -79.5t87.5 -68.5t104 -66t108.5 -66.5t103.5 -75.5t87.5 -88.5t60.5 -110t22.5 -135q0 -87 -36 -155t-92.5 -110 t-133 -69.5t-151.5 -38t-154 -10.5q-117 0 -230 27t-177 63t-64 64z" />
<glyph unicode="T" horiz-adv-x="1234" d="M221 1372l19 113q2 11 11 19.5t19 8.5h963q22 0 22 -26l-10 -109q-11 -30 -33 -30h-364q-95 -526 -160 -1319q0 -29 -31 -29h-120q-24 0 -27 29q60 784 160 1319h-428q-21 0 -21 24z" />
<glyph unicode="U" horiz-adv-x="1349" d="M215 481q0 463 178 1004q12 28 41 28h98q8 0 14.5 -9t6.5 -19q-168 -636 -168 -996q0 -173 56 -258.5t153 -85.5q216 0 379 201q0 579 102 1139q0 11 8.5 19.5t20.5 8.5h121q24 0 24 -24q-56 -319 -84 -658t-49 -798q-3 -33 -33 -33h-67q-47 0 -47 158 q-164 -181 -389 -181q-176 0 -270.5 133.5t-94.5 370.5z" />
<glyph unicode="V" horiz-adv-x="1265" d="M272 899q0 258 56 586q2 11 10 19.5t18 8.5h125q23 0 23 -18q-53 -395 -53 -637q0 -358 108 -670q206 268 328.5 580.5t199.5 724.5q3 20 29 20h131q19 0 19 -20q0 -2 -0.5 -5.5t-1.5 -10t-2 -11.5q-146 -885 -629 -1446q-17 -20 -31 -20h-141q-10 0 -14 4t-9 16 q-166 417 -166 879z" />
<glyph unicode="W" horiz-adv-x="1415" d="M213 723q0 406 168 762q12 28 29 28h104q33 0 33 -30q-148 -367 -148 -801q0 -231 47 -451q78 128 160.5 330t116.5 375q1 25 1.5 62t1 63t2 57.5t4.5 53t8.5 40t14.5 28t21 9.5h107q26 0 25 -28q-2 -51 -1 -150q0 -244 32 -467t75 -373q65 121 110 267t69 313t35 322.5 t15 349.5q0 30 41 30h107q16 0 20 -7.5t4 -30.5q0 -433 -80 -808.5t-252 -633.5q-20 -33 -41 -33h-94q-26 0 -35 33q-6 17 -36 100.5t-40.5 118t-29.5 105.5t-27 137t-10 139q-82 -287 -268 -600q-20 -33 -53 -33h-82q-28 0 -37 33q-117 349 -117 690z" />
<glyph unicode="X" horiz-adv-x="1236" d="M0 20q0 15 18 33q357 414 564 713q-244 544 -244 719q0 10 9 19t20 9h116q20 0 23 -16q48 -243 190 -571q183 276 344 571q10 16 25 16h147q25 0 25 -20q0 -10 -10 -27q-204 -365 -451 -712q205 -413 432 -686q17 -17 17 -33q0 -35 -33 -35h-125q-25 0 -41 16 q-154 154 -362 580q-275 -376 -449 -580q-10 -16 -25 -16h-165q-25 0 -25 20z" />
<glyph unicode="Y" horiz-adv-x="1183" d="M268 1294q0 219 45 219h125q23 0 23 -16q0 -27 -5 -85t-5 -91q0 -205 53 -411t164 -351q253 441 336 934q3 20 28 20h131q21 0 21 -20q0 -3 -6 -27q-158 -770 -662 -1437q-26 -29 -53 -29h-105q-36 0 -36 23q0 13 18 38q165 226 248 363q-139 112 -229.5 362.5 t-90.5 507.5z" />
<glyph unicode="Z" horiz-adv-x="1124" d="M176 29l23 123q68 179 191 408.5t218 383.5t260 412q-73 -8 -176 -8h-448q-23 0 -23 20l21 117q3 28 30 28h791q22 0 22 -28l-20 -115q-444 -658 -674 -1214q105 10 254 10h356q25 0 25 -31l-20 -106q-3 -29 -33 -29h-776q-21 0 -21 29z" />
<glyph unicode="[" horiz-adv-x="843" d="M59 -428l1 2q1 2 1 6l365 2065q2 11 11.5 19.5t21.5 8.5h360q11 0 18 -7t7 -17v-4l-21 -107q-3 -31 -32 -31h-211l-316 -1788h211q23 0 23 -20l-19 -119q-10 -29 -35 -29h-360q-25 0 -25 21z" />
<glyph unicode="\" horiz-adv-x="1228" d="M395 1477q0 36 33 36h107q16 0 22 -18l369 -1747q-3 -27 -31 -27h-109q-4 0 -10 6.5t-8 12.5z" />
<glyph unicode="]" horiz-adv-x="841" d="M59 -428l21 115q6 30 35 30h209l315 1788h-209q-27 0 -27 23l23 117q2 11 11.5 19.5t21.5 8.5h358q25 0 25 -24l-365 -2069q-10 -29 -35 -29h-358q-25 0 -25 21z" />
<glyph unicode="^" horiz-adv-x="1159" d="M258 700q0 13 6 19l457 776q12 18 27 18h67q17 0 23 -18l192 -788q0 -29 -39 -29h-125q-16 0 -22 16l-99 563l-305 -565q-11 -14 -30 -14h-127q-25 0 -25 22z" />
<glyph unicode="_" horiz-adv-x="1218" d="M0 -231l18 104q1 12 11.5 21.5t21.5 9.5h1067q21 0 21 -31l-17 -96q-10 -29 -32 -29h-1067q-23 0 -23 21z" />
<glyph unicode="`" horiz-adv-x="768" d="M381 1423q0 13 10 23l101 106q6 13 24 13q9 0 12 -6l203 -226q1 -4 2 -8.5t1.5 -6.5t0.5 -3q0 -14 -10 -31l-53 -55q-8 -8 -25 -8l-254 180q-12 9 -12 22z" />
<glyph unicode="a" horiz-adv-x="1228" d="M123 274q0 128 29 253.5t86 236t134.5 195t181 133.5t218.5 49q63 0 119.5 -20.5t87.5 -51.5q36 49 94 49q43 0 43 -33q0 -6 -4 -26q-13 -66 -56 -236.5t-70.5 -318t-27.5 -266.5q0 -73 30 -104t97 -46q15 -4 19 -17.5t4 -39.5q0 -28 -15 -41t-67 -13q-66 0 -109.5 20.5 t-66 63.5t-31 96.5t-8.5 133.5q0 26 4 35q-45 -92 -99.5 -162t-108.5 -109.5t-103 -58.5t-92 -19q-146 0 -217.5 80t-71.5 217zM287 297q0 -162 145 -162q236 0 430 473q21 87 74 340q-38 35 -135 35q-119 0 -218 -56t-162.5 -151.5t-98.5 -218.5t-35 -260z" />
<glyph unicode="b" horiz-adv-x="1157" d="M109 35q45 182 110 609t100 603q10 53 24.5 106t35.5 110t49.5 92.5t58.5 35.5h82q37 0 37 -28q-173 -341 -221 -822q49 114 105 194.5t115 124t115.5 62.5t119.5 19q123 0 188.5 -94t65.5 -236q0 -118 -25.5 -235.5t-78.5 -225.5t-127 -191t-178.5 -132.5t-225.5 -49.5 q-66 0 -126 24.5t-79 51.5q-39 -53 -102 -53q-24 0 -33.5 8.5t-9.5 26.5zM281 156q65 -21 143 -21q242 0 376 180.5t134 485.5q0 91 -33 136.5t-94 45.5q-120 0 -226.5 -119t-228.5 -375q-50 -256 -71 -333z" />
<glyph unicode="c" horiz-adv-x="1058" d="M131 385q0 157 31 285.5t83.5 214.5t123.5 145t148.5 85t160.5 26q85 0 155 -17t117 -56.5t47 -96.5q0 -69 -34 -190.5t-72 -121.5h-90q-23 0 -23 27q45 166 45 238q0 28 -42 43.5t-107 15.5q-72 0 -137.5 -33.5t-120 -100t-87 -179.5t-32.5 -258q0 -79 21 -135t59.5 -86 t84.5 -43t105 -13q85 0 176.5 25.5t151.5 66.5q9 9 23 9q15 0 22 -17l29 -72l4 -16q0 -18 -15 -33q-70 -56 -186.5 -88.5t-255.5 -32.5q-167 0 -276 112t-109 296z" />
<glyph unicode="d" horiz-adv-x="1259" d="M127 291q0 124 26.5 245.5t81 230.5t129.5 192.5t179.5 132.5t224.5 49q109 0 180 -51q19 87 30 138t27.5 117.5t29.5 104t29.5 74t33 52t35.5 15.5h86q32 0 32 -28q-102 -297 -147 -504q-5 -22 -40.5 -175t-50.5 -227t-32.5 -199.5t-17.5 -219.5q0 -77 43.5 -110.5 t150.5 -39.5q15 -4 19 -17.5t4 -39.5q0 -15 -2 -22t-10.5 -16t-30 -12.5t-56.5 -3.5q-144 0 -206 62t-62 186q0 45 10 117q-94 -183 -209.5 -274t-226.5 -91q-128 0 -194 84t-66 230zM291 317q0 -182 127 -182q126 0 226 111.5t202 361.5q59 271 76 340q-41 35 -125 35 q-131 0 -229 -47.5t-158 -137t-89.5 -209.5t-29.5 -272z" />
<glyph unicode="e" horiz-adv-x="1052" d="M115 418q0 175 42.5 314.5t116.5 227.5t169.5 134.5t205.5 46.5q142 0 212.5 -77.5t70.5 -203.5q0 -375 -645 -561q47 -164 272 -164q212 0 352 92q15 9 27 9q13 0 20 -17l29 -78q1 -4 2 -8.5t1.5 -6.5t0.5 -3q0 -13 -12 -25q-66 -55 -191 -88t-243 -33 q-202 0 -316 118.5t-114 322.5zM272 406q136 43 236 100.5t154 118.5t79 119t25 116q0 123 -139 123q-88 0 -158.5 -54.5t-112 -141t-63 -185t-21.5 -196.5z" />
<glyph unicode="f" horiz-adv-x="735" d="M0 -420q95 181 121 326l186 1057h-112q-23 0 -23 20l18 107q3 28 31 28h113l26 137q15 75 25 118t29 95t41 78q46 56 172 56q65 0 86.5 -7t21.5 -36v-37q0 -18 -5.5 -24.5t-29.5 -10.5q-28 -4 -42 -7t-33 -9.5t-28 -17.5t-21 -27.5t-19.5 -43t-16.5 -61t-18 -84.5 l-22 -119h213q22 0 22 -28l-16 -97q-6 -30 -33 -30h-213l-188 -1067q-13 -67 -37.5 -143.5t-60.5 -139t-68 -62.5h-84q-35 0 -35 29z" />
<glyph unicode="g" horiz-adv-x="1183" d="M88 -305q0 12 14 26l68 78q7 11 20 11q12 0 21 -9q95 -92 215 -92q64 0 112.5 11t87.5 32t68.5 60.5t52 87.5t40.5 123t32 156.5t29 197.5q-49 -105 -131.5 -180t-163 -106.5t-154.5 -31.5q-114 0 -187 89.5t-73 220.5q0 117 25.5 228t78.5 210t127.5 173t178.5 117.5 t225 43.5q66 0 126 -24.5t79 -51.5q39 53 102 53q24 0 33.5 -8.5t9.5 -26.5q-105 -494 -184 -1042q-36 -251 -155 -370.5t-345 -119.5q-242 0 -346 125q-6 6 -6 19zM307 379q0 -81 35.5 -121.5t89.5 -40.5q53 0 106.5 19.5t112.5 64t119 128.5t111 200q4 19 19 95.5 t28.5 139t23.5 99.5q-62 20 -143 20q-241 0 -371.5 -164.5t-130.5 -439.5z" />
<glyph unicode="h" horiz-adv-x="1157" d="M94 29q20 107 215 1218q27 151 67 247.5t87 96.5h76q36 0 36 -28q-52 -104 -103.5 -315t-82.5 -472q31 67 74.5 129t99.5 116.5t125.5 87t140.5 32.5q96 0 152.5 -51.5t56.5 -147.5q0 -105 -60 -353t-60 -351q0 -73 29.5 -104t96.5 -46q15 -4 19 -17.5t4 -39.5 q0 -28 -15 -41t-67 -13q-75 0 -124.5 18t-75 55t-35 80.5t-9.5 107.5q0 82 30.5 203.5t60.5 246t30 213.5q0 82 -78 82q-45 0 -89 -20.5t-84.5 -59.5t-74 -79t-68.5 -97.5t-56 -94.5t-49 -90q-12 -22 -17 -32q-15 -79 -33.5 -188t-31.5 -182t-23 -109q-8 -31 -45 -31h-82 q-37 0 -37 29z" />
<glyph unicode="i" horiz-adv-x="602" d="M152 252q0 381 124 829q9 37 37 37h95q34 0 34 -31q-116 -442 -116 -835q0 -85 29.5 -118t97.5 -46q11 -3 16 -13t5.5 -17.5t0.5 -26.5q0 -28 -15 -41t-67 -13q-121 0 -181 63.5t-60 211.5zM305 1438q0 62 46 107.5t104 45.5q48 0 76 -31t28 -79q0 -63 -44 -109.5 t-107 -46.5q-44 0 -73.5 32.5t-29.5 80.5z" />
<glyph unicode="j" horiz-adv-x="638" d="M0 -401q0 5 3.5 15.5t4.5 14.5l21 72q6 25 28 25q12 0 40 -10.5t44 -10.5q76 0 107 176q26 133 41 277q56 479 71 923q3 37 41 37h86q23 0 32 -12t9 -37q0 -124 -12 -260q-24 -356 -55 -604q-3 -24 -11 -99t-13.5 -115.5t-16.5 -101t-25 -106.5q-16 -58 -34 -97 t-47.5 -71.5t-73 -48t-103.5 -15.5q-50 0 -93.5 11t-43.5 37zM340 1438q0 66 42.5 109.5t104.5 43.5q46 0 75.5 -33t29.5 -79q0 -62 -45.5 -108t-106.5 -46q-45 0 -72.5 33.5t-27.5 79.5z" />
<glyph unicode="k" horiz-adv-x="1159" d="M113 29q6 34 50 292.5t86 496.5t79 429q10 53 24.5 106t35.5 110t49.5 92.5t58.5 35.5h82q36 0 36 -28q-33 -61 -60.5 -137.5t-51 -179.5t-37 -170t-37 -199.5t-31.5 -176.5q117 233 231 337t267 104q91 0 135.5 -54.5t44.5 -140.5q0 -85 -49.5 -158t-134.5 -125.5 t-174.5 -89t-194.5 -63.5q3 -88 49 -176.5t114.5 -143.5t133.5 -55q129 0 225 84q14 14 33 14q13 0 19 -14l20 -65q4 -16 4 -23q0 -21 -12 -33q-128 -121 -328 -121q-93 0 -181 76t-141 201t-48 256q3 52 55 74q224 86 337 164.5t113 173.5q0 61 -73 61q-55 0 -103 -20 t-105 -72t-110.5 -114.5t-140.5 -174.5q-24 -121 -47 -253.5t-36.5 -207.5t-23.5 -110q-8 -31 -45 -31h-81q-37 0 -37 29z" />
<glyph unicode="l" horiz-adv-x="608" d="M156 252q0 420 157 995q97 344 189 344h69q37 0 37 -28q-73 -115 -129 -326q-149 -559 -149 -985q0 -85 31 -118t100 -46q11 -3 16 -13t5.5 -17.5t0.5 -26.5q0 -28 -15 -41t-67 -13q-123 0 -184 63.5t-61 211.5z" />
<glyph unicode="m" horiz-adv-x="1505" d="M94 29q13 72 47.5 241t55 278.5t39 259.5t18.5 267q0 43 43 43h74q41 0 41 -51q0 -114 -27 -268q192 342 375 342q73 0 104 -38.5t31 -135.5q0 -75 -18 -189q167 363 387 363q77 0 115 -43.5t38 -139.5q0 -64 -31.5 -199.5t-62.5 -282t-31 -238.5q0 -73 30 -104t97 -46 q11 -3 16 -11.5t6 -16.5t1 -23q0 -38 -22 -49t-97 -11q-207 0 -207 256q0 90 33 227t66.5 265.5t33.5 198.5q0 59 -55 59q-67 0 -170 -133t-190 -350q-8 -40 -29 -146.5t-38 -192.5t-24 -112q-13 -49 -49 -49h-98q-23 0 -23 29q5 41 9 51q67 227 115 466.5t48 356.5 q0 44 -10.5 62t-44.5 18q-26 0 -89.5 -62t-138.5 -175.5t-116 -229.5q-18 -93 -47.5 -268t-40.5 -217q-8 -31 -45 -31h-82q-37 0 -37 29z" />
<glyph unicode="n" horiz-adv-x="1153" d="M94 29q13 72 47.5 241t55 278.5t39 259.5t18.5 267q0 43 43 43h74q41 0 41 -51q0 -114 -35 -319q46 91 89 156t100 122t127 86t153 29q87 0 137.5 -50t50.5 -137q0 -114 -60.5 -364t-60.5 -352q0 -73 30 -104t97 -46q15 -4 19 -17.5t4 -39.5q0 -28 -15 -41t-67 -13 q-130 0 -187 59.5t-57 174.5q0 113 60.5 348t60.5 342q0 82 -78 82q-48 0 -96 -21.5t-89.5 -60.5t-78 -84.5t-69 -101t-56.5 -102.5t-45 -97q-18 -93 -47.5 -268t-40.5 -217q-8 -31 -45 -31h-82q-37 0 -37 29z" />
<glyph unicode="o" horiz-adv-x="1130" d="M129 377q0 150 41.5 289t113 244t174.5 168t220 63q86 0 129 -21.5t43 -48.5q0 -16 -8 -24l-41 -60q-9 -12 -27 -12q-13 0 -46 4t-60 4q-160 0 -269.5 -159t-109.5 -435q0 -130 57 -192t160 -62q96 0 183.5 69t141.5 188t54 255q0 56 -10 93t-22 50.5t-22 32.5t-10 43 q0 22 13 41l49 76q23 39 47 39q44 0 78 -84.5t34 -220.5q0 -98 -22 -199.5t-68.5 -198.5t-111 -173t-156.5 -122.5t-197 -46.5q-92 0 -162.5 31t-112.5 86.5t-62.5 126.5t-20.5 156z" />
<glyph unicode="p" horiz-adv-x="1126" d="M0 -420q2 7 35 125t49 195q21 98 37.5 186t33.5 195.5t24.5 155t27 188t24.5 172.5q8 55 12 105.5t4.5 80.5t1.5 57t2 40t6 23t13.5 12.5t24.5 2.5h74q41 0 41 -51q0 -130 -29 -301q156 375 407 375q133 0 201 -83t68 -239q0 -120 -26.5 -240.5t-79.5 -228.5t-126 -191.5 t-173 -132.5t-212 -49q-88 0 -151 29q-71 -455 -195 -455h-61q-33 0 -33 29zM309 154q53 -19 140 -19q124 0 226.5 92.5t160 244.5t57.5 327q0 184 -131 184q-62 0 -124.5 -41t-115.5 -110t-95.5 -144t-78.5 -160q-6 -52 -18 -177t-21 -197z" />
<glyph unicode="q" horiz-adv-x="1126" d="M123 307q0 98 18 196.5t52.5 192t88.5 174t122 141t157.5 95.5t190.5 35q66 0 125.5 -24.5t78.5 -51.5q39 53 103 53q24 0 33.5 -8.5t9.5 -26.5q-109 -521 -155 -833t-46 -418q0 -86 28.5 -122t98.5 -48q15 -4 19 -17.5t4 -39.5q0 -28 -15 -41t-67 -13 q-113 0 -169.5 68.5t-56.5 218.5q0 110 38 299t44 240q-95 -221 -206 -310.5t-242 -89.5q-123 0 -188.5 94t-65.5 236zM283 317q0 -91 33 -136.5t94 -45.5q119 0 221.5 118t226.5 376q3 15 19 94.5t29.5 141t23.5 98.5q-62 20 -144 20q-161 0 -275.5 -84t-171 -233 t-56.5 -349z" />
<glyph unicode="r" horiz-adv-x="901" d="M100 29q15 83 47 239.5t55 283.5t38 245q16 121 19 244q1 54 7 65.5t37 11.5h74q41 0 41 -51q0 -114 -35 -319q67 145 156 227q36 33 67 57.5t75.5 51.5t95 42t102.5 15q22 0 22 -29v-113q-6 -30 -33 -30q-98 0 -212.5 -70t-199.5 -176.5t-104 -206.5q-15 -80 -33.5 -190 t-31.5 -185t-23 -110q-8 -31 -45 -31h-82q-37 0 -37 29z" />
<glyph unicode="s" horiz-adv-x="1019" d="M0 66l16 112q10 19 33 19q6 0 11 -1.5t10 -4t20 -9.5t33 -14q79 -33 285 -33q58 0 108 11t93 33.5t68 64t25 96.5q0 35 -12 62.5t-31 47t-57.5 39t-75 33t-100.5 33.5q-54 17 -88.5 30.5t-73.5 36t-61 48t-36.5 63.5t-14.5 86q0 92 65 166t175 115t241 41q305 0 305 -127 q0 -25 -13 -77.5t-38 -101.5t-51 -49h-64q-20 0 -22 17q32 65 32 133q0 47 -190 47q-126 0 -201.5 -48t-75.5 -122q0 -49 56 -80t192 -74q158 -51 233.5 -122t75.5 -195q0 -168 -128.5 -266.5t-389.5 -98.5q-68 0 -150.5 9.5t-131.5 25.5q-72 28 -72 54z" />
<glyph unicode="t" horiz-adv-x="710" d="M143 985l19 105q3 28 28 28h158q16 52 26.5 83t28.5 81t33 80.5t34 62.5t39 47t40 15h76q37 0 37 -27q-134 -209 -146 -342h172q23 0 23 -28l-17 -97q-6 -30 -32 -30h-187q-86 -339 -86 -711q0 -85 29.5 -118t97.5 -46q15 -4 19 -17.5t4 -39.5q0 -28 -15 -41t-67 -13 q-121 0 -181.5 63.5t-60.5 211.5q0 307 96 711h-147q-21 0 -21 22z" />
<glyph unicode="u" horiz-adv-x="1138" d="M125 274q0 171 51.5 391t124.5 425q3 28 29 28h116q25 0 25 -28q-49 -156 -80.5 -266.5t-61.5 -268t-30 -274.5q0 -85 24 -115.5t85 -30.5q69 0 138.5 52.5t121.5 133t91 168.5t58 168q23 169 78 433q6 28 33 28h110q23 0 23 -28q-87 -437 -113 -594.5t-26 -257.5 q0 -73 30 -104t97 -46q11 -3 16 -13t5.5 -17.5t0.5 -26.5q0 -28 -15 -41t-67 -13q-112 0 -164.5 60t-52.5 184q0 43 10 121q-36 -79 -74 -139.5t-88 -114t-112.5 -82.5t-134.5 -29q-121 0 -184.5 79.5t-63.5 217.5z" />
<glyph unicode="v" horiz-adv-x="1089" d="M158 752q0 155 18.5 260.5t54.5 105.5h117q25 0 24 -28q-43 -185 -42 -359q0 -267 48.5 -431.5t133.5 -164.5q49 0 107 55t108.5 144t85.5 214t39 251q0 56 -14.5 108.5t-14.5 65.5q0 30 29 67l68 72q29 29 65 29q64 0 64 -160q0 -162 -41 -337t-112 -324.5t-180.5 -246 t-234.5 -96.5q-103 0 -177.5 105t-110 277.5t-35.5 392.5z" />
<glyph unicode="w" horiz-adv-x="1550" d="M143 561q0 184 33.5 370.5t73.5 186.5h123q10 0 10 -18v-10q-70 -261 -70 -553q0 -180 31.5 -291t79.5 -111q67 0 159.5 145.5t139.5 354.5q-4 21 -4 90q0 393 53 393h123q16 0 16 -28q-22 -146 -22 -314q0 -178 25.5 -328.5t64 -231.5t78.5 -81q34 0 75 55.5t77 143.5 t60.5 213.5t24.5 251.5q0 56 -11 108.5t-11 65.5q0 37 18 67l84 72q23 29 51 29q54 0 54 -172q0 -129 -19.5 -266.5t-58 -267t-91 -232t-125 -164.5t-153.5 -62q-85 0 -155.5 103t-112.5 285q-77 -179 -175.5 -283.5t-207.5 -104.5q-69 0 -123.5 75.5t-84.5 208.5t-30 300z " />
<glyph unicode="x" horiz-adv-x="1064" d="M0 25q0 15 18 30q247 244 451 512q-95 146 -154 296t-59 222q0 11 11 21t24 10l100 2q21 0 27 -20q48 -194 162 -414q112 144 286 418q10 16 27 16h125q31 0 31 -24q0 -16 -11 -27q-229 -324 -381 -512q159 -286 365 -492q16 -16 16 -26q0 -37 -39 -37h-110 q-27 0 -70.5 42t-91 109.5t-92 139.5t-84.5 145q-28 -35 -84.5 -107.5t-89.5 -114.5t-82.5 -99t-93.5 -101q-14 -14 -29 -14h-141q-31 0 -31 25z" />
<glyph unicode="y" horiz-adv-x="1136" d="M49 -305q0 12 14 26l68 78q7 11 21 11q11 0 20 -9q47 -46 101 -69t135 -23q59 0 104 11.5t80.5 31.5t63 59.5t47.5 83.5t38 117t31.5 146t30.5 184q-66 -147 -163 -213t-247 -66q-121 0 -184.5 79.5t-63.5 217.5q0 166 48.5 344t128.5 386q3 28 28 28h117q25 0 25 -28 q-12 -35 -47.5 -135.5t-51.5 -151.5t-39 -135t-33 -156.5t-10 -144.5q0 -83 27 -114.5t90 -31.5q70 0 139 39.5t121.5 102.5t91.5 140t58 154q24 182 77 433q6 28 33 28h111q22 0 22 -28q-112 -541 -180 -1049q-33 -249 -153.5 -369.5t-346.5 -120.5q-242 0 -346 125 q-6 6 -6 19z" />
<glyph unicode="z" horiz-adv-x="1089" d="M80 29l20 108q120 210 332.5 448.5t396.5 387.5q-133 -10 -237 -10h-311q-23 0 -23 22l18 105q3 28 31 28h752q20 0 20 -28l-18 -99q-124 -106 -216 -191.5t-194.5 -190.5t-188 -215.5t-153.5 -225.5q163 10 250 10h402q20 0 20 -24l-23 -125q-3 -29 -28 -29h-830 q-20 0 -20 29z" />
<glyph unicode="{" horiz-adv-x="1013" d="M229 532l25 144q6 29 35 29h39q103 0 151 241l78 438q27 151 110 220t185 69h139q23 0 23 -28l-21 -107q-3 -31 -30 -31h-117q-46 0 -68 -16t-41.5 -73.5t-44.5 -190.5l-65 -367q-32 -169 -207 -256q65 -38 94 -83.5t29 -106.5q0 -28 -6 -62l-62 -354q-24 -138 -24 -197 q0 -53 17 -67.5t62 -14.5h117q11 0 15.5 -5t5 -9t0.5 -16l-19 -109q-6 -29 -33 -29h-135q-86 0 -143 51.5t-57 168.5q0 53 10 102l69 389q13 83 13 127q0 65 -19 94t-61 29h-39q-25 0 -25 20z" />
<glyph unicode="|" horiz-adv-x="575" d="M72 -358l336 1908q6 29 32 29h113q20 0 20 -29l-335 -1908q-2 -11 -11.5 -20t-19.5 -9h-113q-22 0 -22 29z" />
<glyph unicode="}" horiz-adv-x="978" d="M59 -428l21 117q6 30 33 30h116q35 0 52.5 6t36.5 34t32.5 82.5t32.5 156.5l61 354q18 88 65.5 147t143.5 105q-125 64 -125 193q0 23 7 63l65 367q23 132 23 194q0 56 -17.5 71t-60.5 15h-117q-22 0 -22 31l20 107q2 11 10.5 19.5t20.5 8.5h139q44 0 76.5 -7t63 -26 t47 -58t16.5 -97q0 -35 -17 -135l-69 -404q-13 -76 -13 -121q0 -120 80 -120h39q23 0 23 -29l-23 -135q-6 -29 -35 -29h-39q-57 0 -91.5 -57t-59.5 -193l-70 -389q-15 -91 -48.5 -157t-77.5 -100t-88.5 -49.5t-92.5 -15.5h-135q-23 0 -23 21z" />
<glyph unicode="~" horiz-adv-x="1255" d="M242 600l28 172q115 133 250 133q62 0 115.5 -19t86 -41.5t81.5 -41.5t102 -19q93 0 230 140q9 12 24 12q11 0 15.5 -5.5t5 -9.5t0.5 -16l-29 -164q-70 -70 -134.5 -101.5t-148.5 -31.5q-43 0 -80 12.5t-65 31t-56.5 36.5t-68.5 30.5t-88 12.5q-43 0 -101.5 -35 t-121.5 -104q-11 -14 -23 -14q-22 0 -22 22z" />
<glyph unicode="&#xa1;" horiz-adv-x="659" d="M59 -432q155 538 217 1034q1 12 11.5 20.5t21.5 8.5h135q23 0 23 -27q-54 -559 -141 -1026q-2 -12 -11.5 -22.5t-21.5 -10.5h-213q-21 0 -21 23zM289 999q0 68 42 115t97 47q46 0 73 -31t27 -79q0 -71 -42 -115.5t-105 -44.5q-41 0 -66.5 29.5t-25.5 78.5z" />
<glyph unicode="&#xa2;" horiz-adv-x="1044" d="M209 594q0 172 57.5 320t157.5 239t221 102l41 230q3 28 33 28h80q22 0 22 -28l-41 -225q104 -5 175 -32.5t71 -66.5q0 -16 -8 -24l-64 -88q-6 -13 -22 -13q-3 0 -21 11q-50 27 -93 36t-120 9q-143 0 -234 -123t-91 -338q0 -62 12 -100t41.5 -58t66.5 -26.5t99 -6.5 q74 0 125.5 22.5t124.5 72.5q8 8 24 8q1 0 19 -11l28 -86q7 -7 7 -14q0 -13 -13 -26q-71 -59 -137.5 -91t-161.5 -39l-45 -247q-3 -29 -31 -29h-79q-16 0 -20.5 6.5t-4.5 22.5l45 247q-138 8 -201 81t-63 237z" />
<glyph unicode="&#xa3;" horiz-adv-x="1304" d="M104 29l21 108q2 11 12.5 20t20.5 9h32q82 99 138.5 202.5t105.5 247.5h-151q-23 0 -23 21q0 1 1 4t1 4l19 105q3 30 30 30h168l41 195q62 295 181 431t315 136q32 0 69.5 -4.5t76.5 -14.5t65 -28t26 -41q0 -15 -6 -24l-69 -87q-12 -12 -27 -12q-7 0 -16 6 q-43 39 -150 39q-89 0 -169.5 -99.5t-123.5 -301.5l-41 -195h230q20 0 20 -30l-18 -105q-10 -29 -31 -29h-248q-41 -136 -97 -239t-138 -211h716q25 0 25 -29l-20 -108q-3 -29 -33 -29h-928q-25 0 -25 29z" />
<glyph unicode="&#xa4;" horiz-adv-x="1191" d="M221 426q0 19 10 29l140 131q-6 33 -6 106q0 114 67 236l-94 131q-4 4 -4 12q0 13 12 29l86 80q5 8 19 8q11 0 20 -12l90 -125q4 1 19.5 6.5t20 7t18 5.5t20 5t18.5 3.5t21 3.5t21 2t24 1q104 0 149 -36l146 131q8 8 16 8q13 0 21 -8l57 -80q2 -2 2 -17q0 -14 -10 -24 l-141 -133q6 -33 6 -109q0 -40 -10 -81t-21.5 -69t-36.5 -81l96 -131q4 -4 4 -13q0 -18 -10 -28l-86 -80q-8 -8 -22 -8q-12 0 -15 8l-98 131q-15 -4 -47.5 -14.5t-58 -15.5t-56.5 -5q-80 0 -147 33l-139 -129q-8 -8 -23 -8q-13 0 -16 8l-58 80q-4 4 -4 12zM487 719 q0 -71 35 -114.5t109 -43.5q70 0 120 37t72.5 92t22.5 119q0 147 -146 147q-109 0 -161 -67.5t-52 -169.5z" />
<glyph unicode="&#xa5;" horiz-adv-x="1161" d="M72 301q0 8 2 10l16 97q6 30 31 30h328l38 224h-327q-13 0 -17 6.5t-4 21.5l19 96q3 31 28 31h328l-219 633q-6 15 -6 31q0 32 33 32h122q15 0 21 -16l162 -508l340 508q13 16 26 16h133q23 0 23 -20q0 -24 -19 -43l-442 -633h326q22 0 22 -31l-18 -96q-3 -28 -31 -28 h-325l-39 -224h325q11 0 15.5 -5t5 -9t0.5 -16l-17 -97q-6 -28 -32 -28h-326l-45 -254q-3 -29 -31 -29h-121q-16 0 -19 6t-3 23l45 254h-328q-20 0 -20 18z" />
<glyph unicode="&#xa6;" horiz-adv-x="552" d="M72 -358l131 741q6 29 30 29h113q23 0 23 -29l-131 -741q-2 -11 -11.5 -20t-19.5 -9h-113q-22 0 -22 29zM272 780l136 770q6 29 32 29h113q20 0 20 -29l-135 -770q-2 -11 -11 -19.5t-19 -8.5h-113q-23 0 -23 28z" />
<glyph unicode="&#xa7;" horiz-adv-x="1048" d="M166 35l18 108q6 31 33 31q3 0 9.5 -2.5t9.5 -3.5q127 -37 221 -37q63 0 116.5 45t53.5 125q0 46 -36.5 88t-139.5 109q-58 37 -94 73t-59.5 91t-23.5 126q0 87 56.5 165t140.5 126q-59 62 -59 168q0 128 82 211.5t235 83.5q81 0 150 -15.5t69 -43.5l-18 -107 q-3 -30 -27 -30q-23 8 -49.5 19t-38.5 15t-36.5 7.5t-59.5 3.5q-65 0 -105.5 -29t-40.5 -82q0 -64 43.5 -111.5t139.5 -99.5q93 -50 135.5 -112.5t42.5 -153.5q0 -105 -50 -186.5t-143 -122.5q56 -62 56 -175q0 -156 -103 -249t-286 -93q-242 0 -242 58zM442 799 q0 -62 34.5 -104t127.5 -95q64 2 110 51t46 121q0 51 -29 87t-83 70.5t-64 43.5q-142 -39 -142 -174z" />
<glyph unicode="&#xa8;" horiz-adv-x="958" d="M362 1384q0 61 42 106.5t96 45.5q44 0 71 -30.5t27 -78.5q0 -60 -43 -104.5t-100 -44.5q-41 0 -67 30.5t-26 75.5zM725 1384q0 61 41.5 106.5t97.5 45.5q43 0 68.5 -30t25.5 -76q0 -62 -41 -107t-98 -45q-42 0 -68 30.5t-26 75.5z" />
<glyph unicode="&#xaa;" horiz-adv-x="942" d="M260 928q0 145 52.5 275.5t155 216t232.5 85.5q77 0 127 -37q23 23 62 23q53 0 53 -49q0 -29 -24.5 -122t-49 -210t-24.5 -205q0 -36 13.5 -49t45.5 -20q37 -8 37 -56q0 -19 -1.5 -27.5t-8.5 -19t-24 -14.5t-46 -4q-77 0 -113 37t-47 114q-55 -80 -116 -115.5t-115 -35.5 q-209 0 -209 213zM416 942q0 -76 67 -76q123 0 250 287q5 34 41 190q-29 11 -57 11q-92 0 -161.5 -58t-104.5 -151t-35 -203z" />
<glyph unicode="&#xab;" horiz-adv-x="1069" d="M186 614q0 19 13 35l313 369q12 12 27 12q12 0 22 -10l51 -59l4 -15q0 -14 -10 -24l-284 -308l159 -313l4 -20q0 -19 -16 -29l-51 -29q-9 -6 -21 -6q-21 0 -30 21l-172 344q-9 15 -9 32zM616 614q0 19 13 35l313 369q12 12 27 12q12 0 22 -10l51 -59l5 -15q0 -13 -11 -24 l-284 -308l159 -313l4 -20q0 -19 -16 -29l-51 -29q-9 -6 -21 -6q-21 0 -30 21l-172 344q-9 15 -9 32z" />
<glyph unicode="&#xac;" horiz-adv-x="1265" d="M240 688l22 123q6 31 33 31h850q5 0 8.5 -0.5t5.5 -3t3.5 -3.5t2 -5t0.5 -5.5v-7v-6.5l-92 -518q-2 -11 -10.5 -20t-18.5 -9h-112q-25 0 -25 29l66 375h-709q-24 0 -24 20z" />
<glyph unicode="&#xad;" horiz-adv-x="1136" d="M356 532l21 121q6 29 33 29h436q20 0 20 -29l-18 -110q-6 -29 -33 -29h-436q-23 0 -23 18z" />
<glyph unicode="&#xaf;" horiz-adv-x="1056" d="M371 1339l20 115q12 31 35 31h608q21 0 21 -31l-21 -115q-3 -30 -30 -30h-609q-16 0 -20 5.5t-4 24.5z" />
<glyph unicode="&#xb0;" horiz-adv-x="917" d="M307 1143q0 62 13 119t42 108t70.5 88.5t102.5 59.5t135 22q126 0 185.5 -70t59.5 -186q0 -79 -21 -148.5t-63.5 -126.5t-113.5 -90.5t-164 -33.5q-123 0 -184.5 70.5t-61.5 187.5zM434 1171q0 -70 34.5 -112.5t106.5 -42.5q108 0 163 72t55 174q0 69 -36.5 109 t-111.5 40q-109 0 -160 -68.5t-51 -171.5z" />
<glyph unicode="&#xb1;" horiz-adv-x="1536" d="M225 29l21 114q6 31 33 31h919q13 0 17 -6.5t4 -24.5l-21 -114q-3 -29 -31 -29h-919q-16 0 -19.5 6.5t-3.5 22.5zM412 688l22 123q6 31 33 31h305l66 362q3 29 30 29h121q23 0 23 -29l-66 -362h295q23 0 23 -31l-21 -115q-6 -28 -33 -28h-295l-63 -369q-2 -11 -12.5 -20 t-20.5 -9h-121q-20 0 -20 29l63 369h-305q-24 0 -24 20z" />
<glyph unicode="&#xb2;" horiz-adv-x="790" d="M213 672l8 49q15 88 63.5 170t118.5 143q13 11 51.5 40.5t63 52t54 57t44.5 76t15 88.5q0 86 -74 86q-122 0 -145 -213q-2 -17 -11.5 -24t-40.5 -7q-53 0 -63 6.5t-10 40.5q0 51 18 107t50.5 106t87 82.5t120.5 32.5q90 0 146.5 -56.5t56.5 -160.5q0 -85 -33 -154.5 t-84 -118.5t-103.5 -93t-101 -99t-67.5 -115h317q14 0 23.5 -13t9.5 -28l-12 -63q-2 -14 -12 -23.5t-25 -9.5h-434q-31 0 -31 41z" />
<glyph unicode="&#xb3;" horiz-adv-x="813" d="M213 709q0 22 12 34l31 33q23 19 39 19q18 0 35 -17q13 -13 54.5 -20.5t74.5 -7.5q84 0 136 64.5t52 160.5q0 104 -92 104h-109q-40 0 -40 43l8 47q2 13 13.5 23.5t29.5 11.5q94 10 142 55t48 113q0 28 -17.5 45t-51.5 17q-61 0 -123 -62q-12 -12 -31 -12q-17 0 -31 14 l-24 25q-11 11 -11 33q0 21 15 36q87 97 217 97q93 0 145.5 -49t52.5 -136q0 -76 -35 -133.5t-94 -77.5q129 -38 129 -194q0 -97 -38.5 -177.5t-119 -131t-188.5 -50.5q-141 0 -213 60q-16 13 -16 33z" />
<glyph unicode="&#xb4;" horiz-adv-x="768" d="M371 1300q0 20 16 33l281 226q9 6 16 6q11 0 21 -13l59 -106l4 -14q0 -22 -18 -31l-320 -180q-17 0 -20 8l-33 55q-6 6 -6 16z" />
<glyph unicode="&#xb6;" horiz-adv-x="1202" d="M211 -381l254 1440q-83 19 -124.5 71t-41.5 119q0 110 84.5 187t243.5 77h551q24 0 24 -24l-94 -158l-301 -1704q-6 -28 -33 -28h-119q-22 0 -22 18l254 1440h-246l-252 -1430q-6 -28 -31 -28h-127q-20 0 -20 20z" />
<glyph unicode="&#xb7;" horiz-adv-x="624" d="M233 553q0 66 44 113t102 47q43 0 69.5 -31.5t26.5 -81.5q0 -64 -43.5 -112t-99.5 -48q-44 0 -71.5 32.5t-27.5 80.5z" />
<glyph unicode="&#xb8;" horiz-adv-x="397" d="M37 -389q0 10 4 14q79 123 104 244q6 25 31 25h119q8 0 15 -6.5t7 -16.5q0 -53 -56.5 -147t-131.5 -162q-11 -11 -20 -11q-8 0 -15 7l-49 34q-8 5 -8 19z" />
<glyph unicode="&#xb9;" horiz-adv-x="616" d="M213 1384q0 23 60.5 63.5t119.5 69t107 48.5h59q19 0 26 -10t7 -33q-87 -326 -156 -858q-4 -33 -39 -33h-69q-33 0 -33 41q58 441 121 706q-24 -11 -59 -32.5t-58.5 -34.5t-34.5 -13q-15 0 -33 36.5t-18 49.5z" />
<glyph unicode="&#xba;" horiz-adv-x="899" d="M260 993q0 137 47.5 253.5t134 187.5t193.5 71q67 0 100 -21t33 -48q0 -13 -2 -15q11 11 29 11q37 0 66.5 -63t29.5 -159q0 -66 -15 -134t-46.5 -133t-75 -115.5t-106 -81.5t-134.5 -31q-128 0 -191 76.5t-63 201.5zM414 1004q0 -70 29 -104t81 -34q83 0 149 90t66 211 q0 52 -20.5 83t-20.5 57q0 22 21 49q-9 -6 -33 -6q-10 0 -26 2t-33 2q-89 0 -151 -94.5t-62 -255.5z" />
<glyph unicode="&#xbb;" horiz-adv-x="1069" d="M121 301q0 15 10 25l285 307l-160 313l-4 21q0 18 16 28l51 29q9 6 21 6q22 0 31 -20l172 -344q8 -13 8 -33t-12 -35l-314 -369q-12 -12 -26 -12q-13 0 -23 10l-51 60zM551 301q0 15 10 25l285 307l-160 313l-4 21q0 18 16 28l52 29q9 6 20 6q22 0 31 -20l172 -344 q8 -13 8 -33t-12 -35l-314 -369q-12 -12 -26 -12q-13 0 -23 10l-51 60z" />
<glyph unicode="&#xbc;" horiz-adv-x="1509" d="M141 20q0 8 13 27l1165 1452q11 14 22 14h142q20 0 20 -22t-8 -25l-1167 -1454q-1 -4 -9.5 -8t-13.5 -4h-141q-23 0 -23 20zM233 1384q0 23 60.5 63.5t119.5 69t107 48.5h60q19 0 25.5 -10t6.5 -33q-85 -319 -155 -858q-4 -33 -39 -33h-70q-33 0 -33 41q58 441 121 706 q-24 -11 -58.5 -32.5t-58 -34.5t-34.5 -13q-15 0 -33.5 36.5t-18.5 49.5zM883 221l12 70q196 323 426 565q18 18 37 18h61q33 0 33 -38q-24 -215 -80 -521h64q18 0 24 -8.5t6 -27.5l-10 -66q-3 -35 -39 -35h-76q-3 -14 -9.5 -49t-12 -59.5t-14 -52.5t-20 -43t-25.5 -15h-72 q-23 0 -28 8.5t-5 32.5q35 129 45 178h-285q-12 0 -19 3t-9.5 10.5t-3 12.5t-0.5 17zM1065 315h166q32 167 51 306q-92 -117 -217 -306z" />
<glyph unicode="&#xbd;" horiz-adv-x="1509" d="M141 20q0 8 13 27l1165 1452q11 14 22 14h142q20 0 20 -22t-8 -25l-1167 -1454q-1 -4 -9.5 -8t-13.5 -4h-141q-23 0 -23 20zM209 1384q0 23 60.5 63.5t119.5 69t107 48.5h59q19 0 26 -10t7 -33q-87 -326 -156 -858q-4 -33 -39 -33h-69q-33 0 -33 41q58 441 121 706 q-24 -11 -59 -32.5t-58.5 -34.5t-34.5 -13q-15 0 -33 36.5t-18 49.5zM930 0l8 49q15 88 63.5 170t118.5 143q13 11 51.5 40.5t63 52t54 57t44.5 76t15 88.5q0 86 -74 86q-123 0 -146 -213q-1 -12 -4 -17.5t-14 -9.5t-33 -4q-53 0 -63 6.5t-10 40.5q0 51 18 107t50.5 106 t87 82.5t120.5 32.5q90 0 146.5 -56.5t56.5 -160.5q0 -85 -33 -154.5t-84 -118.5t-103.5 -93t-101 -99t-67.5 -115h317q14 0 23.5 -13t9.5 -28l-12 -63q-2 -14 -12 -23.5t-25 -9.5h-434q-31 0 -31 41z" />
<glyph unicode="&#xbe;" horiz-adv-x="1609" d="M141 709q0 21 13 34l30 33q23 19 39 19q18 0 35 -17q13 -13 54.5 -20.5t74.5 -7.5q84 0 136 64.5t52 160.5q0 104 -92 104h-108q-41 0 -41 43l8 47q2 13 13.5 23.5t29.5 11.5q94 10 142 55t48 113q0 28 -17.5 45t-51.5 17q-61 0 -123 -62q-12 -12 -31 -12q-16 0 -30 14 l-25 25q-10 10 -10 33q0 22 14 36q87 97 217 97q93 0 146 -49t53 -136q0 -76 -35 -133.5t-94 -77.5q129 -38 129 -194q0 -97 -38.5 -177.5t-119 -131t-188.5 -50.5q-141 0 -213 60q-17 14 -17 33zM242 20q0 9 12 27l1165 1452q11 14 23 14h141q10 0 15.5 -7t5.5 -15 q0 -22 -9 -25l-1167 -1454q-1 -4 -9 -8t-13 -4h-142q-22 0 -22 20zM985 221l12 70q196 323 426 565q18 18 37 18h62q32 0 32 -38q-25 -229 -79 -521h63q18 0 24.5 -8.5t6.5 -27.5l-10 -66q-3 -35 -39 -35h-76q-3 -13 -9.5 -48.5t-12.5 -60t-14.5 -52.5t-20 -43t-25.5 -15 h-72q-23 0 -28 8.5t-5 32.5q39 143 46 178h-285q-15 0 -23 7t-9 14t-1 22zM1167 315h166q32 167 51 306q-92 -117 -217 -306z" />
<glyph unicode="&#xbf;" horiz-adv-x="1130" d="M115 -125q0 85 28 155t72.5 117t98.5 88t108 77.5t98.5 75t72.5 91t28 115.5q0 55 5.5 72.5t30.5 17.5h111q25 0 25 -76q0 -84 -27.5 -153.5t-71 -117t-96.5 -89t-106 -78.5t-96.5 -75.5t-71 -90t-27.5 -113.5q0 -129 276 -129q62 0 148 15.5t141 34.5q21 0 27 -31 l14 -68l4 -18q0 -31 -69 -54.5t-153 -33.5t-157 -10q-57 0 -108.5 6t-109.5 24t-99 47.5t-68.5 81t-27.5 119.5zM645 1001q0 68 43 115t100 47q43 0 71 -31.5t28 -80.5q0 -67 -44.5 -112.5t-101.5 -45.5q-43 0 -69.5 29.5t-26.5 78.5z" />
<glyph unicode="&#xc0;" d="M43 20q0 14 8 27q86 228 150.5 386t152 347.5t188 362t218.5 338.5q22 32 57 32h119q19 0 25 -20q172 -489 210 -1446q0 -3 1.5 -8t1.5 -8q0 -31 -33 -31h-129q-18 0 -21 20q-23 378 -24 390h-592q-83 -198 -152 -390q-9 -20 -30 -20h-127q-23 0 -23 20zM444 575h510 q-40 441 -118 758q-229 -380 -392 -758zM684 1819q0 12 10 22l101 107q6 12 24 12q9 0 12 -6l203 -225q1 -4 2 -8.5t1.5 -7t0.5 -3.5q0 -14 -10 -31l-53 -55q-8 -8 -25 -8l-254 180q-12 9 -12 23z" />
<glyph unicode="&#xc1;" d="M43 20q0 14 8 27q86 228 150.5 386t152 347.5t188 362t218.5 338.5q22 32 57 32h119q19 0 25 -20q172 -489 210 -1446q0 -3 1.5 -8t1.5 -8q0 -31 -33 -31h-129q-18 0 -21 20q-23 378 -24 390h-592q-83 -198 -152 -390q-9 -20 -30 -20h-127q-23 0 -23 20zM444 575h510 q-40 441 -118 758q-229 -380 -392 -758zM741 1696q0 19 17 33l280 225q9 6 17 6q11 0 20 -12l60 -107l4 -14q0 -21 -19 -31l-319 -180q-18 0 -21 8l-32 55q-7 7 -7 17z" />
<glyph unicode="&#xc2;" d="M43 20q0 14 8 27q86 228 150.5 386t152 347.5t188 362t218.5 338.5q22 32 57 32h119q19 0 25 -20q172 -489 210 -1446q0 -3 1.5 -8t1.5 -8q0 -31 -33 -31h-129q-18 0 -21 20q-23 378 -24 390h-592q-83 -198 -152 -390q-9 -20 -30 -20h-127q-23 0 -23 20zM444 575h510 q-40 441 -118 758q-229 -380 -392 -758zM610 1704q0 12 13 25l237 221q10 10 21 10h82q6 0 16 -10l156 -221q10 -10 10 -25q0 -20 -15 -29l-77 -57q-4 -1 -8.5 -2t-7 -1.5t-3.5 -0.5q-10 0 -16 6l-115 178l-180 -178q-6 -6 -18 -6q-15 0 -23 8l-66 61q-6 6 -6 21z" />
<glyph unicode="&#xc3;" d="M43 20q0 14 8 27q86 228 150.5 386t152 347.5t188 362t218.5 338.5q22 32 57 32h119q19 0 25 -20q172 -489 210 -1446q0 -3 1.5 -8t1.5 -8q0 -31 -33 -31h-129q-18 0 -21 20q-23 378 -24 390h-592q-83 -198 -152 -390q-9 -20 -30 -20h-127q-23 0 -23 20zM444 575h510 q-40 441 -118 758q-229 -380 -392 -758zM582 1747q0 68 53 124t133 56q42 0 79.5 -15.5t60 -33.5t49 -33.5t49.5 -15.5q19 0 33.5 15.5t22 33.5t17.5 33.5t21 15.5q12 0 18 -6l60 -43q10 -7 10 -20q0 -64 -58 -121.5t-129 -57.5q-44 0 -82.5 15t-60 33.5t-47 33.5t-47.5 15 q-25 0 -41.5 -24t-27.5 -48.5t-23 -24.5q-15 0 -19 4l-61 46q-10 3 -10 18z" />
<glyph unicode="&#xc4;" d="M43 20q0 14 8 27q86 228 150.5 386t152 347.5t188 362t218.5 338.5q22 32 57 32h119q19 0 25 -20q172 -489 210 -1446q0 -3 1.5 -8t1.5 -8q0 -31 -33 -31h-129q-18 0 -21 20q-23 378 -24 390h-592q-83 -198 -152 -390q-9 -20 -30 -20h-127q-23 0 -23 20zM444 575h510 q-40 441 -118 758q-229 -380 -392 -758zM623 1780q0 61 41.5 106t95.5 45q44 0 71 -30t27 -78q0 -60 -43 -105t-100 -45q-41 0 -66.5 31t-25.5 76zM985 1780q0 61 41.5 106t97.5 45q43 0 69 -30.5t26 -75.5q0 -62 -41.5 -107t-98.5 -45q-42 0 -68 31t-26 76z" />
<glyph unicode="&#xc5;" d="M43 20q0 14 8 27q77 201 122.5 315.5t121.5 289t140.5 298t155.5 272t191 281.5q-82 36 -82 160q0 134 66 215.5t192 81.5q181 0 181 -176q0 -113 -49 -186.5t-134 -98.5q177 -495 215 -1452q0 -3 1.5 -8t1.5 -8q0 -31 -33 -31h-129q-18 0 -21 20q-23 378 -24 390h-592 q-83 -198 -152 -390q-9 -20 -30 -20h-127q-23 0 -23 20zM444 575h510q-40 441 -118 758q-229 -380 -392 -758zM793 1671q0 -51 21.5 -73.5t74.5 -22.5q69 0 113.5 61t44.5 142q0 54 -24 78t-81 24q-66 0 -107.5 -62.5t-41.5 -146.5z" />
<glyph unicode="&#xc6;" horiz-adv-x="1536" d="M43 18q0 14 8 27q21 64 81.5 253.5t86 267t80 234t92.5 250t91.5 213t107.5 218.5q18 32 51 32h477q98 29 170 29q22 0 43.5 -1.5t52 -6.5t55.5 -15.5t48 -26.5t36 -42t13 -59q0 -50 -27.5 -207.5t-56.5 -157.5h-92q-19 0 -19 27q3 23 14 78.5t18 102.5t7 77 q0 40 -31 52.5t-96 12.5q-53 0 -103.5 -14.5t-96.5 -44t-74.5 -85t-28.5 -128.5q0 -115 54.5 -183.5t173.5 -68.5h49q22 0 29.5 -8.5t7.5 -28.5l-7 -43q-6 -39 -53 -39q-73 0 -138.5 -20t-121 -59.5t-88.5 -107.5t-33 -157q0 -68 27.5 -119t72 -78t92.5 -40t99 -13 q82 0 180.5 46.5t135.5 101.5q10 16 24 16q18 0 27 -27l12 -32q6 -14 6 -37q0 -13 -17 -40t-53 -60.5t-82.5 -63t-114.5 -50t-140 -20.5q-84 0 -159 23t-137.5 69.5t-99.5 126.5t-37 183v33h-319q-28 -89 -69.5 -232t-45.5 -158q-9 -20 -28 -20h-134q-20 0 -20 20zM393 573 h314q47 87 123.5 144.5t164.5 75.5q-96 49 -149 122.5t-53 188.5q0 67 32 139.5t68 104.5h-205q-134 -278 -295 -775z" />
<glyph unicode="&#xc7;" horiz-adv-x="1314" d="M197 571q0 228 52 413t144 306.5t218.5 186.5t275.5 65q82 0 152 -17t116.5 -55t46.5 -90q0 -76 -36 -215t-74 -139h-91q-22 0 -22 27q3 14 18.5 81t23 112t7.5 79q0 51 -158 51q-229 0 -366 -200.5t-137 -581.5q0 -117 29.5 -206.5t82 -142.5t119 -79.5t145.5 -26.5 q99 0 194.5 45t143.5 103q13 16 31 16q21 0 33 -27l14 -32q8 -13 8 -37q0 -14 -15.5 -40t-51.5 -60t-86 -63.5t-129 -50t-170 -20.5q-234 0 -376 160.5t-142 437.5zM516 -389q0 10 4 14q81 126 105 244q6 25 30 25h119q8 0 15.5 -6.5t7.5 -16.5q0 -53 -57 -147t-132 -162 q-11 -11 -20 -11q-8 0 -15 7l-49 34q-8 5 -8 19z" />
<glyph unicode="&#xc8;" horiz-adv-x="1253" d="M133 375q0 161 113 276.5t278 141.5q-111 47 -169 120.5t-58 190.5q0 84 36 156.5t96 123t137 87t159 54t162 17.5q27 0 54 -1.5t65 -6.5t69 -15.5t60 -26.5t45 -42t16 -59q0 -50 -34.5 -207.5t-69.5 -157.5h-91q-22 0 -22 27q47 206 47 258q0 39 -38.5 52t-117.5 13 q-43 0 -87 -6t-90 -18.5t-85.5 -34.5t-71 -51t-49.5 -71t-18 -91q0 -115 66.5 -183.5t214.5 -68.5h61q28 0 36.5 -8.5t8.5 -28.5l-6 -43q-6 -39 -68 -39q-90 0 -171.5 -20t-150 -59.5t-109 -107.5t-40.5 -157q0 -68 33.5 -118.5t88.5 -78t115 -40.5t124 -13q102 0 224 46.5 t167 101.5q13 16 31 16q20 0 32 -27l15 -32q8 -13 8 -37q0 -13 -21 -40t-65 -60.5t-102 -63t-142.5 -50t-175.5 -20.5q-82 0 -156 14t-139.5 45t-112.5 77t-74.5 114t-27.5 152zM692 1819q0 12 10 22l101 107q6 12 24 12q10 0 13 -6l202 -225q1 -4 2 -8.5t2 -7t1 -3.5 q0 -13 -11 -31l-53 -55q-8 -8 -25 -8l-253 180q-13 10 -13 23z" />
<glyph unicode="&#xc9;" horiz-adv-x="1253" d="M133 375q0 161 113 276.5t278 141.5q-111 47 -169 120.5t-58 190.5q0 84 36 156.5t96 123t137 87t159 54t162 17.5q27 0 54 -1.5t65 -6.5t69 -15.5t60 -26.5t45 -42t16 -59q0 -50 -34.5 -207.5t-69.5 -157.5h-91q-22 0 -22 27q47 206 47 258q0 39 -38.5 52t-117.5 13 q-43 0 -87 -6t-90 -18.5t-85.5 -34.5t-71 -51t-49.5 -71t-18 -91q0 -115 66.5 -183.5t214.5 -68.5h61q28 0 36.5 -8.5t8.5 -28.5l-6 -43q-6 -39 -68 -39q-90 0 -171.5 -20t-150 -59.5t-109 -107.5t-40.5 -157q0 -68 33.5 -118.5t88.5 -78t115 -40.5t124 -13q102 0 224 46.5 t167 101.5q13 16 31 16q20 0 32 -27l15 -32q8 -13 8 -37q0 -13 -21 -40t-65 -60.5t-102 -63t-142.5 -50t-175.5 -20.5q-82 0 -156 14t-139.5 45t-112.5 77t-74.5 114t-27.5 152zM768 1696q0 20 16 33l281 225q9 6 16 6q12 0 21 -12l59 -107l4 -14q0 -22 -18 -31l-320 -180 q-17 0 -20 8l-33 55q-6 6 -6 17z" />
<glyph unicode="&#xca;" horiz-adv-x="1253" d="M133 375q0 161 113 276.5t278 141.5q-111 47 -169 120.5t-58 190.5q0 84 36 156.5t96 123t137 87t159 54t162 17.5q27 0 54 -1.5t65 -6.5t69 -15.5t60 -26.5t45 -42t16 -59q0 -50 -34.5 -207.5t-69.5 -157.5h-91q-22 0 -22 27q47 206 47 258q0 39 -38.5 52t-117.5 13 q-43 0 -87 -6t-90 -18.5t-85.5 -34.5t-71 -51t-49.5 -71t-18 -91q0 -115 66.5 -183.5t214.5 -68.5h61q28 0 36.5 -8.5t8.5 -28.5l-6 -43q-6 -39 -68 -39q-90 0 -171.5 -20t-150 -59.5t-109 -107.5t-40.5 -157q0 -68 33.5 -118.5t88.5 -78t115 -40.5t124 -13q102 0 224 46.5 t167 101.5q13 16 31 16q20 0 32 -27l15 -32q8 -13 8 -37q0 -13 -21 -40t-65 -60.5t-102 -63t-142.5 -50t-175.5 -20.5q-82 0 -156 14t-139.5 45t-112.5 77t-74.5 114t-27.5 152zM618 1704q0 12 13 25l237 221q10 10 21 10h82q6 0 16 -10l156 -221q10 -10 10 -25 q0 -21 -14 -29l-78 -57q-4 -1 -8.5 -2t-7 -1.5t-3.5 -0.5q-10 0 -16 6l-115 178l-180 -178q-6 -6 -18 -6q-15 0 -23 8l-65 61q-7 7 -7 21z" />
<glyph unicode="&#xcb;" horiz-adv-x="1253" d="M133 375q0 161 113 276.5t278 141.5q-111 47 -169 120.5t-58 190.5q0 84 36 156.5t96 123t137 87t159 54t162 17.5q27 0 54 -1.5t65 -6.5t69 -15.5t60 -26.5t45 -42t16 -59q0 -50 -34.5 -207.5t-69.5 -157.5h-91q-22 0 -22 27q47 206 47 258q0 39 -38.5 52t-117.5 13 q-43 0 -87 -6t-90 -18.5t-85.5 -34.5t-71 -51t-49.5 -71t-18 -91q0 -115 66.5 -183.5t214.5 -68.5h61q28 0 36.5 -8.5t8.5 -28.5l-6 -43q-6 -39 -68 -39q-90 0 -171.5 -20t-150 -59.5t-109 -107.5t-40.5 -157q0 -68 33.5 -118.5t88.5 -78t115 -40.5t124 -13q102 0 224 46.5 t167 101.5q13 16 31 16q20 0 32 -27l15 -32q8 -13 8 -37q0 -13 -21 -40t-65 -60.5t-102 -63t-142.5 -50t-175.5 -20.5q-82 0 -156 14t-139.5 45t-112.5 77t-74.5 114t-27.5 152zM606 1780q0 61 41.5 106t95.5 45q44 0 71.5 -30.5t27.5 -77.5q0 -60 -43.5 -105t-100.5 -45 q-41 0 -66.5 31t-25.5 76zM969 1780q0 61 41.5 106t97.5 45q43 0 68.5 -30t25.5 -76q0 -62 -41 -107t-98 -45q-42 0 -68 31t-26 76z" />
<glyph unicode="&#xcc;" horiz-adv-x="679" d="M213 31q111 870 254 1452q11 30 35 30h133q20 0 20 -30q-82 -328 -141.5 -663.5t-124.5 -788.5q-12 -31 -35 -31h-121q-20 0 -20 31zM399 1819q0 11 11 22l100 107q6 12 25 12q9 0 12 -6l203 -225q1 -4 2 -8.5t1.5 -7t0.5 -3.5q0 -13 -11 -31l-53 -55q-8 -8 -24 -8 l-254 180q-13 10 -13 23z" />
<glyph unicode="&#xcd;" horiz-adv-x="679" d="M213 31q111 870 254 1452q11 30 35 30h133q20 0 20 -30q-82 -328 -141.5 -663.5t-124.5 -788.5q-12 -31 -35 -31h-121q-20 0 -20 31zM442 1696q0 19 17 33l280 225q9 6 17 6q11 0 20 -12l60 -107l4 -14q0 -21 -19 -31l-319 -180q-18 0 -21 8l-32 55q-7 7 -7 17z" />
<glyph unicode="&#xce;" horiz-adv-x="679" d="M213 31q111 870 254 1452q11 30 35 30h133q20 0 20 -30q-82 -328 -141.5 -663.5t-124.5 -788.5q-12 -31 -35 -31h-121q-20 0 -20 31zM328 1704q0 13 12 25l238 221q10 10 20 10h82q6 0 16 -10l156 -221q10 -10 10 -25q0 -21 -14 -29l-78 -57q-4 -1 -8.5 -2t-6.5 -1.5 t-3 -0.5q-11 0 -17 6l-114 178l-181 -178q-6 -6 -18 -6q-15 0 -23 8l-65 61q-6 6 -6 21z" />
<glyph unicode="&#xcf;" horiz-adv-x="679" d="M213 31q111 870 254 1452q11 30 35 30h133q20 0 20 -30q-82 -328 -141.5 -663.5t-124.5 -788.5q-12 -31 -35 -31h-121q-20 0 -20 31zM309 1780q0 61 41.5 106t95.5 45q44 0 71.5 -30.5t27.5 -77.5q0 -60 -43.5 -105t-100.5 -45q-41 0 -66.5 31t-25.5 76zM672 1780 q0 61 41.5 106t97.5 45q43 0 68.5 -30t25.5 -76q0 -62 -41 -107t-98 -45q-42 0 -68 31t-26 76z" />
<glyph unicode="&#xd0;" horiz-adv-x="1351" d="M176 737l21 111q3 29 32 29h103q46 252 86 383q8 28 33 61t59 57q-49 -4 -135.5 -15t-124.5 -15q-21 0 -21 22l9 43q5 31 99.5 62t216.5 49t216 18q63 0 116 -3.5t111.5 -14.5t104.5 -28.5t89.5 -47.5t72.5 -69.5t46 -96.5t17 -127q0 -89 -14 -185t-40.5 -194.5 t-68.5 -193t-95 -181.5t-123 -160t-150 -127t-178 -84t-205 -30h-222q-12 0 -16 7t-4 22q0 25 14 116q54 407 80 564h-104q-16 0 -20.5 6.5t-4.5 21.5zM403 166h76q114 0 221 59t188 157.5t143 222t94 258t32 259.5q0 54 -12 95.5t-30 69.5t-51 47.5t-63.5 30t-80 16t-88 7 t-99.5 1.5q-27 0 -125 -5v-4q-55 -212 -108 -503h260q24 0 24 -29l-20 -111q-3 -28 -33 -28h-258q-38 -222 -70 -543z" />
<glyph unicode="&#xd1;" horiz-adv-x="1425" d="M156 29q180 794 260 1456q2 11 11 19.5t19 8.5h164q20 0 23 -16q57 -333 157.5 -657t223.5 -574q136 632 209 1219q3 28 30 28h109q24 0 24 -28q-120 -873 -258 -1456q-6 -29 -32 -29h-125q-19 0 -25 16q-139 282 -264 649.5t-141 587.5q-61 -452 -219 -1224 q-6 -29 -29 -29h-115q-22 0 -22 29zM645 1747q0 68 53 124t133 56q42 0 79.5 -15.5t60 -33.5t49 -33.5t49.5 -15.5q19 0 33.5 15.5t22 33.5t17.5 33.5t21 15.5q13 0 19 -6l59 -43q10 -7 10 -20q0 -64 -57.5 -121.5t-128.5 -57.5q-44 0 -82.5 15t-60.5 33.5t-47.5 33.5 t-47.5 15q-25 0 -41.5 -24t-27.5 -48.5t-23 -24.5q-14 0 -18 4l-62 46q-10 3 -10 18z" />
<glyph unicode="&#xd2;" d="M203 465q0 195 44 377t129 324.5t199 211.5q-29 -4 -71.5 -10t-66 -9.5t-49 -6t-42.5 -2.5h-9t-7 1t-5 1.5t-3 1.5l-2 2t-1 3v3.5v4.5v5l5 29q7 58 167.5 99.5t352.5 41.5q115 0 194 -35t125 -107t66 -169.5t20 -233.5q0 -134 -20.5 -270.5t-69 -273t-118.5 -241 t-178 -170t-240 -65.5q-202 0 -311 133t-109 355zM371 469q0 -169 65 -247.5t197 -78.5q107 0 194.5 80t141.5 208t83 277t29 298q0 108 -12 175t-46 116.5t-95 70.5t-158 21q-22 0 -104 -5l32 -12q15 -3 15 -18q0 -10 -11 -21q-87 -61 -163.5 -201t-122 -317.5 t-45.5 -345.5zM700 1819q0 11 11 22l100 107q6 12 25 12q9 0 12 -6l203 -225q1 -4 2 -8.5t1.5 -7t0.5 -3.5q0 -13 -11 -31l-53 -55q-8 -8 -24 -8l-254 180q-13 10 -13 23z" />
<glyph unicode="&#xd3;" d="M203 465q0 195 44 377t129 324.5t199 211.5q-29 -4 -71.5 -10t-66 -9.5t-49 -6t-42.5 -2.5h-9t-7 1t-5 1.5t-3 1.5l-2 2t-1 3v3.5v4.5v5l5 29q7 58 167.5 99.5t352.5 41.5q115 0 194 -35t125 -107t66 -169.5t20 -233.5q0 -134 -20.5 -270.5t-69 -273t-118.5 -241 t-178 -170t-240 -65.5q-202 0 -311 133t-109 355zM371 469q0 -169 65 -247.5t197 -78.5q107 0 194.5 80t141.5 208t83 277t29 298q0 108 -12 175t-46 116.5t-95 70.5t-158 21q-22 0 -104 -5l32 -12q15 -3 15 -18q0 -10 -11 -21q-87 -61 -163.5 -201t-122 -317.5 t-45.5 -345.5zM745 1696q0 19 17 33l280 225q9 6 17 6q11 0 20 -12l60 -107l4 -14q0 -21 -19 -31l-319 -180q-18 0 -21 8l-32 55q-7 7 -7 17z" />
<glyph unicode="&#xd4;" d="M203 465q0 195 44 377t129 324.5t199 211.5q-29 -4 -71.5 -10t-66 -9.5t-49 -6t-42.5 -2.5h-9t-7 1t-5 1.5t-3 1.5l-2 2t-1 3v3.5v4.5v5l5 29q7 58 167.5 99.5t352.5 41.5q115 0 194 -35t125 -107t66 -169.5t20 -233.5q0 -134 -20.5 -270.5t-69 -273t-118.5 -241 t-178 -170t-240 -65.5q-202 0 -311 133t-109 355zM371 469q0 -169 65 -247.5t197 -78.5q107 0 194.5 80t141.5 208t83 277t29 298q0 108 -12 175t-46 116.5t-95 70.5t-158 21q-22 0 -104 -5l32 -12q15 -3 15 -18q0 -10 -11 -21q-87 -61 -163.5 -201t-122 -317.5 t-45.5 -345.5zM604 1704q0 13 12 25l238 221q10 10 20 10h82q7 0 17 -10l155 -221q11 -11 11 -25q0 -20 -15 -29l-77 -57q-4 -1 -8.5 -2t-7 -1.5t-3.5 -0.5q-10 0 -16 6l-115 178l-180 -178q-6 -6 -19 -6q-14 0 -22 8l-66 61q-6 6 -6 21z" />
<glyph unicode="&#xd5;" d="M203 465q0 195 44 377t129 324.5t199 211.5q-29 -4 -71.5 -10t-66 -9.5t-49 -6t-42.5 -2.5h-9t-7 1t-5 1.5t-3 1.5l-2 2t-1 3v3.5v4.5v5l5 29q7 58 167.5 99.5t352.5 41.5q115 0 194 -35t125 -107t66 -169.5t20 -233.5q0 -134 -20.5 -270.5t-69 -273t-118.5 -241 t-178 -170t-240 -65.5q-202 0 -311 133t-109 355zM371 469q0 -169 65 -247.5t197 -78.5q107 0 194.5 80t141.5 208t83 277t29 298q0 108 -12 175t-46 116.5t-95 70.5t-158 21q-22 0 -104 -5l32 -12q15 -3 15 -18q0 -10 -11 -21q-87 -61 -163.5 -201t-122 -317.5 t-45.5 -345.5zM578 1747q0 68 53 124t133 56q53 0 97 -24.5t78 -49t62 -24.5q19 0 33.5 15.5t22.5 33.5t18 33.5t21 15.5q12 0 18 -6l60 -43q10 -7 10 -20q0 -64 -58 -121.5t-129 -57.5q-44 0 -82.5 15t-60 33.5t-47 33.5t-47.5 15q-25 0 -41.5 -24t-27.5 -48.5t-23 -24.5 q-15 0 -19 4l-61 46q-10 3 -10 18z" />
<glyph unicode="&#xd6;" d="M203 465q0 195 44 377t129 324.5t199 211.5q-29 -4 -71.5 -10t-66 -9.5t-49 -6t-42.5 -2.5h-9t-7 1t-5 1.5t-3 1.5l-2 2t-1 3v3.5v4.5v5l5 29q7 58 167.5 99.5t352.5 41.5q115 0 194 -35t125 -107t66 -169.5t20 -233.5q0 -134 -20.5 -270.5t-69 -273t-118.5 -241 t-178 -170t-240 -65.5q-202 0 -311 133t-109 355zM371 469q0 -169 65 -247.5t197 -78.5q107 0 194.5 80t141.5 208t83 277t29 298q0 108 -12 175t-46 116.5t-95 70.5t-158 21q-22 0 -104 -5l32 -12q15 -3 15 -18q0 -10 -11 -21q-87 -61 -163.5 -201t-122 -317.5 t-45.5 -345.5zM639 1780q0 61 41.5 106t95.5 45q44 0 71 -30t27 -78q0 -60 -43 -105t-100 -45q-41 0 -66.5 31t-25.5 76zM1001 1780q0 61 42 106t98 45q43 0 68.5 -30t25.5 -76q0 -62 -41 -107t-98 -45q-42 0 -68.5 31t-26.5 76z" />
<glyph unicode="&#xd7;" horiz-adv-x="1191" d="M287 487q0 19 10 29l262 240l-176 241q-4 4 -4 13q0 11 10 28l86 80q8 8 21 8q10 0 18 -8l176 -239l260 239q8 8 19 8q13 0 18 -8l57 -80q5 -15 5 -16q0 -14 -11 -25l-262 -241l176 -240q4 -4 4 -12q0 -19 -10 -29l-86 -80q-8 -8 -22 -8q-10 0 -15 8l-176 240l-260 -240 q-8 -8 -22 -8q-12 0 -17 8l-57 80q-4 4 -4 12z" />
<glyph unicode="&#xd8;" d="M184 -27q0 12 6.5 27t19.5 33.5t24 33t29.5 37t27.5 33.5q-88 125 -88 328q0 195 44 377t129 324.5t199 211.5q-29 -4 -71.5 -10t-66 -9.5t-49 -6t-42.5 -2.5q-27 0 -27 22l5 29q5 39 81.5 71.5t194 51t244.5 18.5q166 0 262 -78q88 150 115 150q10 0 18 -8l59 -52 q15 -12 15 -26q0 -8 -25.5 -41t-56.5 -73t-41 -60q59 -136 59 -357q0 -134 -20.5 -270.5t-69 -273t-118.5 -241t-178 -170t-240 -65.5q-141 0 -238 66q-7 -12 -18.5 -31.5t-19 -31.5t-17.5 -27.5t-17 -25t-14.5 -19t-14 -13.5t-12.5 -4q-9 0 -22 13l-55 47q-11 11 -11 22z M371 469q0 -100 22 -168q113 189 324 527.5t297 480.5q-68 80 -244 80q-22 0 -104 -5l32 -12q15 -3 15 -18q0 -10 -11 -21q-87 -61 -163.5 -201t-122 -317.5t-45.5 -345.5zM471 188q57 -45 162 -45q107 0 194.5 80t141.5 208t83 277t29 298q0 100 -10 159 q-308 -493 -600 -977z" />
<glyph unicode="&#xd9;" horiz-adv-x="1349" d="M215 481q0 463 178 1004q12 28 41 28h98q8 0 14.5 -9t6.5 -19q-168 -636 -168 -996q0 -173 56 -258.5t153 -85.5q216 0 379 201q0 579 102 1139q0 11 8.5 19.5t20.5 8.5h121q24 0 24 -24q-56 -319 -84 -658t-49 -798q-3 -33 -33 -33h-67q-47 0 -47 158 q-164 -181 -389 -181q-176 0 -270.5 133.5t-94.5 370.5zM631 1819q0 12 10 22l100 107q6 12 25 12q9 0 12 -6l203 -225q1 -4 2 -8.5t1.5 -7t0.5 -3.5q0 -14 -10 -31l-53 -55q-8 -8 -25 -8l-254 180q-12 9 -12 23z" />
<glyph unicode="&#xda;" horiz-adv-x="1349" d="M215 481q0 463 178 1004q12 28 41 28h98q8 0 14.5 -9t6.5 -19q-168 -636 -168 -996q0 -173 56 -258.5t153 -85.5q216 0 379 201q0 579 102 1139q0 11 8.5 19.5t20.5 8.5h121q24 0 24 -24q-56 -319 -84 -658t-49 -798q-3 -33 -33 -33h-67q-47 0 -47 158 q-164 -181 -389 -181q-176 0 -270.5 133.5t-94.5 370.5zM690 1696q0 19 17 33l280 225q9 6 17 6q11 0 20 -12l59 -107l4 -14q0 -22 -18 -31l-319 -180q-18 0 -21 8l-33 55q-6 6 -6 17z" />
<glyph unicode="&#xdb;" horiz-adv-x="1349" d="M215 481q0 463 178 1004q12 28 41 28h98q8 0 14.5 -9t6.5 -19q-168 -636 -168 -996q0 -173 56 -258.5t153 -85.5q216 0 379 201q0 579 102 1139q0 11 8.5 19.5t20.5 8.5h121q24 0 24 -24q-56 -319 -84 -658t-49 -798q-3 -33 -33 -33h-67q-47 0 -47 158 q-164 -181 -389 -181q-176 0 -270.5 133.5t-94.5 370.5zM573 1704q0 12 13 25l237 221q10 10 21 10h82q6 0 16 -10l156 -221q10 -10 10 -25q0 -21 -14 -29l-78 -57q-4 -1 -8.5 -2t-7 -1.5t-3.5 -0.5q-10 0 -16 6l-115 178l-180 -178q-6 -6 -18 -6q-15 0 -23 8l-65 61 q-7 7 -7 21z" />
<glyph unicode="&#xdc;" horiz-adv-x="1349" d="M215 481q0 463 178 1004q12 28 41 28h98q8 0 14.5 -9t6.5 -19q-168 -636 -168 -996q0 -173 56 -258.5t153 -85.5q216 0 379 201q0 579 102 1139q0 11 8.5 19.5t20.5 8.5h121q24 0 24 -24q-56 -319 -84 -658t-49 -798q-3 -33 -33 -33h-67q-47 0 -47 158 q-164 -181 -389 -181q-176 0 -270.5 133.5t-94.5 370.5zM578 1780q0 61 41.5 106t95.5 45q44 0 71 -30t27 -78q0 -60 -43 -105t-100 -45q-41 0 -66.5 31t-25.5 76zM940 1780q0 61 41.5 106t97.5 45q43 0 69 -30.5t26 -75.5q0 -62 -41.5 -107t-98.5 -45q-42 0 -68 31t-26 76z " />
<glyph unicode="&#xdd;" horiz-adv-x="1183" d="M268 1294q0 219 45 219h125q23 0 23 -16q0 -27 -5 -85t-5 -91q0 -205 53 -411t164 -351q253 441 336 934q3 20 28 20h131q21 0 21 -20q0 -3 -6 -27q-158 -770 -662 -1437q-26 -29 -53 -29h-105q-36 0 -36 23q0 13 18 38q165 226 248 363q-139 112 -229.5 362.5 t-90.5 507.5zM664 1696q0 20 16 33l281 225q9 6 16 6q11 0 20 -12l60 -107l4 -14q0 -21 -19 -31l-319 -180q-18 0 -21 8l-32 55q-6 6 -6 17z" />
<glyph unicode="&#xde;" horiz-adv-x="1202" d="M182 1020l8 43q9 46 191 86q14 69 76 334q11 30 35 30h133q20 0 20 -30q-10 -39 -70 -301q92 10 148 10q434 0 434 -365q0 -130 -57 -242t-151.5 -187.5t-218.5 -118.5t-257 -43q-52 0 -61 20q-12 -65 -33 -225q-12 -31 -35 -31h-121q-20 0 -20 31q75 589 151 985 l-151 -19q-21 0 -21 23zM428 365q14 14 55 14q90 0 177.5 30t159.5 84.5t116.5 139.5t44.5 186q0 120 -67.5 169.5t-237.5 49.5q-45 0 -131 -4q-65 -332 -117 -669z" />
<glyph unicode="&#xdf;" horiz-adv-x="1093" d="M0 -420q95 181 121 326l239 1349q24 127 48 178q57 121 210 155q65 14 152 14q153 0 220 -69t67 -194q0 -171 -82 -284.5t-199 -143.5q92 -18 151.5 -96t59.5 -203q0 -120 -37.5 -230.5t-106.5 -198.5t-177 -140.5t-238 -52.5q-43 0 -43 20l18 107q6 28 31 28h70 q52 0 107.5 34t102.5 91t77 142t30 178q0 104 -41.5 167.5t-124.5 63.5h-51q-22 0 -22 19l18 84q6 32 33 32q35 0 78.5 23.5t84 65.5t68 111.5t27.5 150.5q0 166 -131 166q-69 0 -106.5 -7.5t-65 -35t-40.5 -70t-26 -123.5l-237 -1341q-13 -66 -38 -143t-61 -139.5 t-67 -62.5h-84q-35 0 -35 29z" />
<glyph unicode="&#xe0;" horiz-adv-x="1228" d="M123 274q0 128 29 253.5t86 236t134.5 195t181 133.5t218.5 49q63 0 119.5 -20.5t87.5 -51.5q36 49 94 49q43 0 43 -33q0 -6 -4 -26q-13 -66 -56 -236.5t-70.5 -318t-27.5 -266.5q0 -73 30 -104t97 -46q15 -4 19 -17.5t4 -39.5q0 -28 -15 -41t-67 -13q-66 0 -109.5 20.5 t-66 63.5t-31 96.5t-8.5 133.5q0 26 4 35q-45 -92 -99.5 -162t-108.5 -109.5t-103 -58.5t-92 -19q-146 0 -217.5 80t-71.5 217zM287 297q0 -162 145 -162q236 0 430 473q21 87 74 340q-38 35 -135 35q-119 0 -218 -56t-162.5 -151.5t-98.5 -218.5t-35 -260zM614 1423 q0 12 11 23l100 106q7 13 25 13q9 0 12 -6l203 -226q1 -4 2 -8.5t1.5 -6.5t0.5 -3q0 -13 -11 -31l-53 -55q-8 -8 -24 -8l-254 180q-13 10 -13 22z" />
<glyph unicode="&#xe1;" horiz-adv-x="1228" d="M123 274q0 128 29 253.5t86 236t134.5 195t181 133.5t218.5 49q63 0 119.5 -20.5t87.5 -51.5q36 49 94 49q43 0 43 -33q0 -6 -4 -26q-13 -66 -56 -236.5t-70.5 -318t-27.5 -266.5q0 -73 30 -104t97 -46q15 -4 19 -17.5t4 -39.5q0 -28 -15 -41t-67 -13q-66 0 -109.5 20.5 t-66 63.5t-31 96.5t-8.5 133.5q0 26 4 35q-45 -92 -99.5 -162t-108.5 -109.5t-103 -58.5t-92 -19q-146 0 -217.5 80t-71.5 217zM287 297q0 -162 145 -162q236 0 430 473q21 87 74 340q-38 35 -135 35q-119 0 -218 -56t-162.5 -151.5t-98.5 -218.5t-35 -260zM682 1300 q0 20 16 33l281 226q9 6 16 6q11 0 21 -13l59 -106l4 -14q0 -22 -18 -31l-320 -180q-17 0 -20 8l-33 55q-6 6 -6 16z" />
<glyph unicode="&#xe2;" horiz-adv-x="1228" d="M123 274q0 128 29 253.5t86 236t134.5 195t181 133.5t218.5 49q63 0 119.5 -20.5t87.5 -51.5q36 49 94 49q43 0 43 -33q0 -6 -4 -26q-13 -66 -56 -236.5t-70.5 -318t-27.5 -266.5q0 -73 30 -104t97 -46q15 -4 19 -17.5t4 -39.5q0 -28 -15 -41t-67 -13q-66 0 -109.5 20.5 t-66 63.5t-31 96.5t-8.5 133.5q0 26 4 35q-45 -92 -99.5 -162t-108.5 -109.5t-103 -58.5t-92 -19q-146 0 -217.5 80t-71.5 217zM287 297q0 -162 145 -162q236 0 430 473q21 87 74 340q-38 35 -135 35q-119 0 -218 -56t-162.5 -151.5t-98.5 -218.5t-35 -260zM563 1309 q0 12 12 24l238 221q11 11 21 11h81q6 0 17 -11l155 -221q11 -11 11 -24q0 -20 -15 -29l-77 -57q-4 -1 -8.5 -2t-7 -1.5t-3.5 -0.5q-10 0 -16 6l-115 178l-180 -178q-6 -6 -19 -6q-14 0 -22 8l-66 61q-6 6 -6 21z" />
<glyph unicode="&#xe3;" horiz-adv-x="1228" d="M123 274q0 128 29 253.5t86 236t134.5 195t181 133.5t218.5 49q63 0 119.5 -20.5t87.5 -51.5q36 49 94 49q43 0 43 -33q0 -6 -4 -26q-13 -66 -56 -236.5t-70.5 -318t-27.5 -266.5q0 -73 30 -104t97 -46q15 -4 19 -17.5t4 -39.5q0 -28 -15 -41t-67 -13q-66 0 -109.5 20.5 t-66 63.5t-31 96.5t-8.5 133.5q0 26 4 35q-45 -92 -99.5 -162t-108.5 -109.5t-103 -58.5t-92 -19q-146 0 -217.5 80t-71.5 217zM287 297q0 -162 145 -162q236 0 430 473q21 87 74 340q-38 35 -135 35q-119 0 -218 -56t-162.5 -151.5t-98.5 -218.5t-35 -260zM557 1352 q0 68 53 124t133 56q42 0 79.5 -15.5t60 -33.5t49 -33.5t49.5 -15.5q19 0 33.5 15.5t22 33.5t17.5 33.5t21 15.5q13 0 19 -6l59 -43q10 -7 10 -21q0 -64 -57.5 -121t-128.5 -57q-44 0 -82.5 15t-60.5 33t-47.5 33t-47.5 15q-20 0 -35 -15t-22 -33t-16 -33t-19 -15 q-14 0 -18 4l-62 45q-10 3 -10 19z" />
<glyph unicode="&#xe4;" horiz-adv-x="1228" d="M123 274q0 128 29 253.5t86 236t134.5 195t181 133.5t218.5 49q63 0 119.5 -20.5t87.5 -51.5q36 49 94 49q43 0 43 -33q0 -6 -4 -26q-13 -66 -56 -236.5t-70.5 -318t-27.5 -266.5q0 -73 30 -104t97 -46q15 -4 19 -17.5t4 -39.5q0 -28 -15 -41t-67 -13q-66 0 -109.5 20.5 t-66 63.5t-31 96.5t-8.5 133.5q0 26 4 35q-45 -92 -99.5 -162t-108.5 -109.5t-103 -58.5t-92 -19q-146 0 -217.5 80t-71.5 217zM287 297q0 -162 145 -162q236 0 430 473q21 87 74 340q-38 35 -135 35q-119 0 -218 -56t-162.5 -151.5t-98.5 -218.5t-35 -260zM563 1384 q0 61 41.5 106.5t95.5 45.5q44 0 71.5 -30.5t27.5 -78.5q0 -60 -43.5 -104.5t-100.5 -44.5q-41 0 -66.5 30.5t-25.5 75.5zM926 1384q0 61 41.5 106.5t97.5 45.5q43 0 68.5 -30t25.5 -76q0 -62 -41 -107t-98 -45q-42 0 -68 30.5t-26 75.5z" />
<glyph unicode="&#xe5;" horiz-adv-x="1228" d="M123 274q0 128 29 253.5t86 236t134.5 195t181 133.5t218.5 49q63 0 119.5 -20.5t87.5 -51.5q36 49 94 49q43 0 43 -33q0 -6 -4 -26q-13 -66 -56 -236.5t-70.5 -318t-27.5 -266.5q0 -73 30 -104t97 -46q15 -4 19 -17.5t4 -39.5q0 -28 -15 -41t-67 -13q-66 0 -109.5 20.5 t-66 63.5t-31 96.5t-8.5 133.5q0 26 4 35q-45 -92 -99.5 -162t-108.5 -109.5t-103 -58.5t-92 -19q-146 0 -217.5 80t-71.5 217zM287 297q0 -162 145 -162q236 0 430 473q21 87 74 340q-38 35 -135 35q-119 0 -218 -56t-162.5 -151.5t-98.5 -218.5t-35 -260zM618 1350 q0 134 66.5 215.5t192.5 81.5q180 0 180 -177q0 -139 -72 -216.5t-192 -77.5q-91 0 -133 43t-42 131zM711 1358q0 -51 21.5 -73.5t74.5 -22.5q70 0 114 60.5t44 141.5q0 54 -24.5 78.5t-80.5 24.5q-66 0 -107.5 -62.5t-41.5 -146.5z" />
<glyph unicode="&#xe6;" horiz-adv-x="1536" d="M102 223q0 81 21.5 147.5t56.5 112t88 80.5t106.5 55t122.5 33.5t125.5 19t125.5 7.5q20 118 20 156q0 54 -12 83.5t-52 47.5t-116 18q-134 0 -269 -72q-2 -1 -6.5 -3.5t-7.5 -2.5q-12 0 -18 15l-15 90q0 4 -1 8l-1 4q0 37 121 78t215 41q186 0 252 -168q123 168 316 168 q122 0 177.5 -76.5t55.5 -204.5q0 -376 -557 -561q41 -164 219 -164q180 0 305 92q9 9 23 9q13 0 16 -17l23 -78q1 -4 2 -8.5t1.5 -6.5t0.5 -3q0 -12 -13 -25q-59 -55 -165.5 -88t-208.5 -33q-55 0 -107 15.5t-99 45.5t-81.5 81t-48.5 117q-70 -112 -172.5 -185.5 t-208.5 -73.5q-62 0 -108.5 21t-73 57t-39.5 78t-13 90zM266 260q0 -67 23.5 -96t99.5 -29q96 0 185.5 98t146.5 318q-51 -3 -93.5 -8t-99 -16.5t-99.5 -32.5t-82 -51t-60 -77t-21 -106zM840 406q405 147 405 471q0 57 -21.5 81.5t-74.5 24.5q-74 0 -134 -54t-96.5 -141.5 t-56.5 -185.5t-22 -196z" />
<glyph unicode="&#xe7;" horiz-adv-x="1058" d="M131 385q0 157 31 285.5t83.5 214.5t123.5 145t148.5 85t160.5 26q85 0 155 -17t117 -56.5t47 -96.5q0 -69 -34 -190.5t-72 -121.5h-90q-23 0 -23 27q45 166 45 238q0 28 -42 43.5t-107 15.5q-72 0 -137.5 -33.5t-120 -100t-87 -179.5t-32.5 -258q0 -79 21 -135t59.5 -86 t84.5 -43t105 -13q85 0 176.5 25.5t151.5 66.5q9 9 23 9q15 0 22 -17l29 -72l4 -16q0 -18 -15 -33q-70 -56 -186.5 -88.5t-255.5 -32.5q-167 0 -276 112t-109 296zM307 -389q0 10 4 14q81 126 105 244q6 25 30 25h119q8 0 15.5 -6.5t7.5 -16.5q0 -53 -57 -147t-132 -162 q-11 -11 -20 -11q-7 0 -14 7l-50 34q-8 5 -8 19z" />
<glyph unicode="&#xe8;" horiz-adv-x="1052" d="M115 418q0 175 42.5 314.5t116.5 227.5t169.5 134.5t205.5 46.5q142 0 212.5 -77.5t70.5 -203.5q0 -375 -645 -561q47 -164 272 -164q212 0 352 92q15 9 27 9q13 0 20 -17l29 -78q1 -4 2 -8.5t1.5 -6.5t0.5 -3q0 -13 -12 -25q-66 -55 -191 -88t-243 -33 q-202 0 -316 118.5t-114 322.5zM272 406q136 43 236 100.5t154 118.5t79 119t25 116q0 123 -139 123q-88 0 -158.5 -54.5t-112 -141t-63 -185t-21.5 -196.5zM537 1423q0 13 10 23l100 106q7 13 25 13q9 0 12 -6l203 -226q1 -4 2 -8.5t1.5 -6.5t0.5 -3q0 -14 -10 -31l-54 -55 q-8 -8 -24 -8l-254 180q-12 9 -12 22z" />
<glyph unicode="&#xe9;" horiz-adv-x="1052" d="M115 418q0 175 42.5 314.5t116.5 227.5t169.5 134.5t205.5 46.5q142 0 212.5 -77.5t70.5 -203.5q0 -375 -645 -561q47 -164 272 -164q212 0 352 92q15 9 27 9q13 0 20 -17l29 -78q1 -4 2 -8.5t1.5 -6.5t0.5 -3q0 -13 -12 -25q-66 -55 -191 -88t-243 -33 q-202 0 -316 118.5t-114 322.5zM272 406q136 43 236 100.5t154 118.5t79 119t25 116q0 123 -139 123q-88 0 -158.5 -54.5t-112 -141t-63 -185t-21.5 -196.5zM559 1300q0 20 16 33l281 226q9 6 16 6q11 0 21 -13l59 -106l4 -14q0 -22 -18 -31l-320 -180q-17 0 -20 8l-33 55 q-6 6 -6 16z" />
<glyph unicode="&#xea;" horiz-adv-x="1052" d="M115 418q0 175 42.5 314.5t116.5 227.5t169.5 134.5t205.5 46.5q142 0 212.5 -77.5t70.5 -203.5q0 -375 -645 -561q47 -164 272 -164q212 0 352 92q15 9 27 9q13 0 20 -17l29 -78q1 -4 2 -8.5t1.5 -6.5t0.5 -3q0 -13 -12 -25q-66 -55 -191 -88t-243 -33 q-202 0 -316 118.5t-114 322.5zM272 406q136 43 236 100.5t154 118.5t79 119t25 116q0 123 -139 123q-88 0 -158.5 -54.5t-112 -141t-63 -185t-21.5 -196.5zM420 1309q0 12 12 24l238 221q11 11 20 11h82q5 0 16 -11l156 -221q10 -10 10 -24q0 -21 -14 -29l-78 -57 q-4 -1 -8.5 -2t-6.5 -1.5t-3 -0.5q-11 0 -17 6l-114 178l-181 -178q-6 -6 -18 -6q-14 0 -22 8l-66 61q-6 6 -6 21z" />
<glyph unicode="&#xeb;" horiz-adv-x="1052" d="M115 418q0 175 42.5 314.5t116.5 227.5t169.5 134.5t205.5 46.5q142 0 212.5 -77.5t70.5 -203.5q0 -375 -645 -561q47 -164 272 -164q212 0 352 92q15 9 27 9q13 0 20 -17l29 -78q1 -4 2 -8.5t1.5 -6.5t0.5 -3q0 -13 -12 -25q-66 -55 -191 -88t-243 -33 q-202 0 -316 118.5t-114 322.5zM272 406q136 43 236 100.5t154 118.5t79 119t25 116q0 123 -139 123q-88 0 -158.5 -54.5t-112 -141t-63 -185t-21.5 -196.5zM428 1384q0 61 41.5 106.5t95.5 45.5q44 0 71.5 -30.5t27.5 -78.5q0 -60 -43.5 -104.5t-100.5 -44.5 q-41 0 -66.5 30.5t-25.5 75.5zM791 1384q0 61 41.5 106.5t97.5 45.5q43 0 68.5 -30t25.5 -76q0 -62 -41 -107t-98 -45q-42 0 -68 30.5t-26 75.5z" />
<glyph unicode="&#xec;" horiz-adv-x="602" d="M152 252q0 381 124 829q9 37 37 37h95q34 0 34 -31q-116 -442 -116 -835q0 -85 29.5 -118t97.5 -46q11 -3 16 -13t5.5 -17.5t0.5 -26.5q0 -28 -15 -41t-67 -13q-121 0 -181 63.5t-60 211.5zM209 1423q0 13 10 23l100 106q7 13 25 13q9 0 12 -6l203 -226q1 -4 2 -8.5 t1.5 -6.5t0.5 -3q0 -14 -10 -31l-53 -55q-8 -8 -25 -8l-254 180q-12 9 -12 22z" />
<glyph unicode="&#xed;" horiz-adv-x="602" d="M152 252q0 381 124 829q9 37 37 37h95q34 0 34 -31q-116 -442 -116 -835q0 -85 29.5 -118t97.5 -46q11 -3 16 -13t5.5 -17.5t0.5 -26.5q0 -28 -15 -41t-67 -13q-121 0 -181 63.5t-60 211.5zM233 1300q0 19 17 33l280 226q9 6 17 6q10 0 20 -13l60 -106l4 -14 q0 -22 -19 -31l-319 -180q-18 0 -21 8l-32 55q-7 7 -7 16z" />
<glyph unicode="&#xee;" horiz-adv-x="602" d="M131 1309q0 12 12 24l238 221q11 11 20 11h82q6 0 17 -11l155 -221q11 -11 11 -24q0 -20 -15 -29l-78 -57q-4 -1 -8.5 -2t-6.5 -1.5t-3 -0.5q-10 0 -16 6l-115 178l-180 -178q-6 -6 -19 -6q-14 0 -22 8l-66 61q-6 6 -6 21zM152 252q0 381 124 829q9 37 37 37h95 q34 0 34 -31q-116 -442 -116 -835q0 -85 29.5 -118t97.5 -46q11 -3 16 -13t5.5 -17.5t0.5 -26.5q0 -28 -15 -41t-67 -13q-121 0 -181 63.5t-60 211.5z" />
<glyph unicode="&#xef;" horiz-adv-x="602" d="M119 1384q0 61 41.5 106.5t95.5 45.5q44 0 71 -30.5t27 -78.5q0 -60 -43 -104.5t-100 -44.5q-41 0 -66.5 30.5t-25.5 75.5zM152 252q0 381 124 829q9 37 37 37h95q34 0 34 -31q-116 -442 -116 -835q0 -85 29.5 -118t97.5 -46q11 -3 16 -13t5.5 -17.5t0.5 -26.5 q0 -28 -15 -41t-67 -13q-121 0 -181 63.5t-60 211.5zM481 1384q0 61 42 106.5t98 45.5q43 0 68.5 -30t25.5 -76q0 -62 -41.5 -107t-98.5 -45q-42 0 -68 30.5t-26 75.5z" />
<glyph unicode="&#xf0;" horiz-adv-x="1189" d="M129 352q0 89 21 175t64.5 162.5t103.5 134.5t143.5 92t179.5 34q134 0 209.5 -72t89.5 -204q33 206 33 344q0 154 -41 252q-110 -70 -219 -152q-8 -8 -23 -8q-16 0 -22 16l-25 64q0 24 14 35q95 72 213 143q-78 78 -206 78q-77 0 -122 -6t-48 -6q-21 0 -21 16l1 3 q1 3 1 7l17 99q4 27 49.5 35t136.5 8q223 0 332 -158q91 51 135 51q19 0 22 -12l19 -56l4 -14q0 -17 -21.5 -30t-58 -25t-49.5 -19q45 -120 45 -299q0 -138 -21.5 -280.5t-71.5 -284.5t-121 -251.5t-180 -178t-239 -68.5q-167 0 -255.5 102.5t-88.5 272.5zM295 352 q0 -105 50 -161t149 -56q62 0 123.5 28.5t113 81t83.5 137t32 185.5q0 126 -55 183t-164 57q-138 0 -235 -125.5t-97 -329.5z" />
<glyph unicode="&#xf1;" horiz-adv-x="1153" d="M94 29q13 72 47.5 241t55 278.5t39 259.5t18.5 267q0 43 43 43h74q41 0 41 -51q0 -114 -35 -319q46 91 89 156t100 122t127 86t153 29q87 0 137.5 -50t50.5 -137q0 -114 -60.5 -364t-60.5 -352q0 -73 30 -104t97 -46q15 -4 19 -17.5t4 -39.5q0 -28 -15 -41t-67 -13 q-130 0 -187 59.5t-57 174.5q0 113 60.5 348t60.5 342q0 82 -78 82q-48 0 -96 -21.5t-89.5 -60.5t-78 -84.5t-69 -101t-56.5 -102.5t-45 -97q-18 -93 -47.5 -268t-40.5 -217q-8 -31 -45 -31h-82q-37 0 -37 29zM403 1352q0 68 53.5 124t133.5 56q42 0 79 -15.5t59.5 -33.5 t49 -33.5t49.5 -15.5q19 0 33.5 15.5t22.5 33.5t18 33.5t21 15.5q12 0 18 -6l59 -43q11 -7 11 -21q0 -63 -57.5 -120.5t-129.5 -57.5q-44 0 -82.5 15t-60 33t-47 33t-47.5 15q-20 0 -35 -15t-22 -33t-16 -33t-19 -15q-15 0 -19 4l-61 45q-11 4 -11 19z" />
<glyph unicode="&#xf2;" horiz-adv-x="1130" d="M129 377q0 150 41.5 289t113 244t174.5 168t220 63q86 0 129 -21.5t43 -48.5q0 -16 -8 -24l-41 -60q-9 -12 -27 -12q-13 0 -46 4t-60 4q-160 0 -269.5 -159t-109.5 -435q0 -130 57 -192t160 -62q96 0 183.5 69t141.5 188t54 255q0 56 -10 93t-22 50.5t-22 32.5t-10 43 q0 22 13 41l49 76q23 39 47 39q44 0 78 -84.5t34 -220.5q0 -98 -22 -199.5t-68.5 -198.5t-111 -173t-156.5 -122.5t-197 -46.5q-92 0 -162.5 31t-112.5 86.5t-62.5 126.5t-20.5 156zM539 1423q0 13 10 23l100 106q7 13 25 13q9 0 12 -6l203 -226q1 -4 2 -8.5t1.5 -6.5 t0.5 -3q0 -14 -10 -31l-54 -55q-8 -8 -24 -8l-254 180q-12 9 -12 22z" />
<glyph unicode="&#xf3;" horiz-adv-x="1130" d="M129 377q0 150 41.5 289t113 244t174.5 168t220 63q86 0 129 -21.5t43 -48.5q0 -16 -8 -24l-41 -60q-9 -12 -27 -12q-13 0 -46 4t-60 4q-160 0 -269.5 -159t-109.5 -435q0 -130 57 -192t160 -62q96 0 183.5 69t141.5 188t54 255q0 56 -10 93t-22 50.5t-22 32.5t-10 43 q0 22 13 41l49 76q23 39 47 39q44 0 78 -84.5t34 -220.5q0 -98 -22 -199.5t-68.5 -198.5t-111 -173t-156.5 -122.5t-197 -46.5q-92 0 -162.5 31t-112.5 86.5t-62.5 126.5t-20.5 156zM600 1300q0 20 16 33l281 226q9 6 16 6q11 0 21 -13l59 -106l4 -14q0 -22 -18 -31 l-320 -180q-17 0 -20 8l-33 55q-6 6 -6 16z" />
<glyph unicode="&#xf4;" horiz-adv-x="1130" d="M129 377q0 150 41.5 289t113 244t174.5 168t220 63q86 0 129 -21.5t43 -48.5q0 -16 -8 -24l-41 -60q-9 -12 -27 -12q-13 0 -46 4t-60 4q-160 0 -269.5 -159t-109.5 -435q0 -130 57 -192t160 -62q96 0 183.5 69t141.5 188t54 255q0 56 -10 93t-22 50.5t-22 32.5t-10 43 q0 22 13 41l49 76q23 39 47 39q44 0 78 -84.5t34 -220.5q0 -98 -22 -199.5t-68.5 -198.5t-111 -173t-156.5 -122.5t-197 -46.5q-92 0 -162.5 31t-112.5 86.5t-62.5 126.5t-20.5 156zM463 1309q0 12 12 24l238 221q11 11 20 11h82q5 0 16 -11l156 -221q10 -10 10 -24 q0 -21 -14 -29l-78 -57q-4 -1 -8.5 -2t-6.5 -1.5t-3 -0.5q-11 0 -17 6l-114 178l-181 -178q-6 -6 -18 -6q-14 0 -22 8l-66 61q-6 6 -6 21z" />
<glyph unicode="&#xf5;" horiz-adv-x="1130" d="M129 377q0 150 41.5 289t113 244t174.5 168t220 63q86 0 129 -21.5t43 -48.5q0 -16 -8 -24l-41 -60q-9 -12 -27 -12q-13 0 -46 4t-60 4q-160 0 -269.5 -159t-109.5 -435q0 -130 57 -192t160 -62q96 0 183.5 69t141.5 188t54 255q0 56 -10 93t-22 50.5t-22 32.5t-10 43 q0 22 13 41l49 76q23 39 47 39q44 0 78 -84.5t34 -220.5q0 -98 -22 -199.5t-68.5 -198.5t-111 -173t-156.5 -122.5t-197 -46.5q-92 0 -162.5 31t-112.5 86.5t-62.5 126.5t-20.5 156zM457 1352q0 68 53 124t133 56q42 0 79.5 -15.5t60 -33.5t49 -33.5t49.5 -15.5 q19 0 33.5 15.5t22 33.5t17.5 33.5t21 15.5q12 0 18 -6l60 -43q10 -7 10 -21q0 -64 -57.5 -121t-128.5 -57q-44 0 -82.5 15t-60.5 33t-47.5 33t-47.5 15q-20 0 -35 -15t-22 -33t-16 -33t-19 -15q-15 0 -19 4l-61 45q-10 3 -10 19z" />
<glyph unicode="&#xf6;" horiz-adv-x="1130" d="M129 377q0 150 41.5 289t113 244t174.5 168t220 63q86 0 129 -21.5t43 -48.5q0 -16 -8 -24l-41 -60q-9 -12 -27 -12q-13 0 -46 4t-60 4q-160 0 -269.5 -159t-109.5 -435q0 -130 57 -192t160 -62q96 0 183.5 69t141.5 188t54 255q0 56 -10 93t-22 50.5t-22 32.5t-10 43 q0 22 13 41l49 76q23 39 47 39q44 0 78 -84.5t34 -220.5q0 -98 -22 -199.5t-68.5 -198.5t-111 -173t-156.5 -122.5t-197 -46.5q-92 0 -162.5 31t-112.5 86.5t-62.5 126.5t-20.5 156zM432 1384q0 61 41.5 106.5t95.5 45.5q44 0 71.5 -30.5t27.5 -78.5q0 -60 -43.5 -104.5 t-100.5 -44.5q-41 0 -66.5 30.5t-25.5 75.5zM795 1384q0 61 41.5 106.5t97.5 45.5q43 0 68.5 -30t25.5 -76q0 -62 -41 -107t-98 -45q-42 0 -68 30.5t-26 75.5z" />
<glyph unicode="&#xf7;" horiz-adv-x="1191" d="M240 688l22 123q6 31 33 31h776q11 0 15.5 -5.5t5 -9.5t0.5 -16l-21 -115q-6 -28 -31 -28h-776q-24 0 -24 20zM483 293q0 69 42 115.5t102 46.5q42 0 68 -30.5t26 -78.5q0 -68 -42.5 -116t-98.5 -48q-44 0 -70.5 31.5t-26.5 79.5zM637 1169q0 71 41 114.5t102 43.5 q43 0 68.5 -28t25.5 -78q0 -68 -41.5 -115t-99.5 -47q-43 0 -69.5 30.5t-26.5 79.5z" />
<glyph unicode="&#xf8;" horiz-adv-x="1130" d="M72 -74q0 21 47 80t86 98q-76 99 -76 273q0 150 41.5 289t113 244t174.5 168t220 63q86 0 129 -21.5t43 -48.5q0 -16 -8 -24l-41 -60q-9 -12 -27 -12q-13 0 -46 4t-60 4q-160 0 -269.5 -159t-109.5 -435q0 -82 28 -149q397 507 621 821q5 7 28 44.5t38.5 56t27.5 18.5 q5 0 23 -11l67 -47q8 -5 8 -18q0 -11 -16 -33q-51 -60 -104 -141q32 -74 32 -213q0 -98 -22 -199.5t-68.5 -198.5t-111 -173t-156.5 -122.5t-197 -46.5q-110 0 -188 43q-26 -35 -49 -68.5t-33.5 -50t-20.5 -30.5t-16.5 -18.5t-13.5 -4.5q-8 0 -19 7l-65 51q-10 7 -10 20z M401 156q41 -21 105 -21q96 0 183.5 69t141.5 188t54 255q0 60 -13 101q-40 -45 -82 -95t-98 -121.5t-87 -111t-106 -137.5t-98 -127z" />
<glyph unicode="&#xf9;" horiz-adv-x="1138" d="M125 274q0 171 51.5 391t124.5 425q3 28 29 28h116q25 0 25 -28q-49 -156 -80.5 -266.5t-61.5 -268t-30 -274.5q0 -85 24 -115.5t85 -30.5q69 0 138.5 52.5t121.5 133t91 168.5t58 168q23 169 78 433q6 28 33 28h110q23 0 23 -28q-87 -437 -113 -594.5t-26 -257.5 q0 -73 30 -104t97 -46q11 -3 16 -13t5.5 -17.5t0.5 -26.5q0 -28 -15 -41t-67 -13q-112 0 -164.5 60t-52.5 184q0 43 10 121q-36 -79 -74 -139.5t-88 -114t-112.5 -82.5t-134.5 -29q-121 0 -184.5 79.5t-63.5 217.5zM500 1423q0 13 10 23l100 106q6 13 25 13q9 0 12 -6 l203 -226q1 -4 2 -8.5t1.5 -6.5t0.5 -3q0 -14 -10 -31l-53 -55q-8 -8 -25 -8l-254 180q-12 9 -12 22z" />
<glyph unicode="&#xfa;" horiz-adv-x="1138" d="M125 274q0 171 51.5 391t124.5 425q3 28 29 28h116q25 0 25 -28q-49 -156 -80.5 -266.5t-61.5 -268t-30 -274.5q0 -85 24 -115.5t85 -30.5q69 0 138.5 52.5t121.5 133t91 168.5t58 168q23 169 78 433q6 28 33 28h110q23 0 23 -28q-87 -437 -113 -594.5t-26 -257.5 q0 -73 30 -104t97 -46q11 -3 16 -13t5.5 -17.5t0.5 -26.5q0 -28 -15 -41t-67 -13q-112 0 -164.5 60t-52.5 184q0 43 10 121q-36 -79 -74 -139.5t-88 -114t-112.5 -82.5t-134.5 -29q-121 0 -184.5 79.5t-63.5 217.5zM567 1300q0 19 17 33l280 226q9 6 17 6q10 0 20 -13 l60 -106l4 -14q0 -22 -19 -31l-319 -180q-18 0 -21 8l-33 55q-6 6 -6 16z" />
<glyph unicode="&#xfb;" horiz-adv-x="1138" d="M125 274q0 171 51.5 391t124.5 425q3 28 29 28h116q25 0 25 -28q-49 -156 -80.5 -266.5t-61.5 -268t-30 -274.5q0 -85 24 -115.5t85 -30.5q69 0 138.5 52.5t121.5 133t91 168.5t58 168q23 169 78 433q6 28 33 28h110q23 0 23 -28q-87 -437 -113 -594.5t-26 -257.5 q0 -73 30 -104t97 -46q11 -3 16 -13t5.5 -17.5t0.5 -26.5q0 -28 -15 -41t-67 -13q-112 0 -164.5 60t-52.5 184q0 43 10 121q-36 -79 -74 -139.5t-88 -114t-112.5 -82.5t-134.5 -29q-121 0 -184.5 79.5t-63.5 217.5zM432 1309q0 12 12 24l238 221q11 11 20 11h82q6 0 17 -11 l155 -221q11 -11 11 -24q0 -20 -15 -29l-78 -57q-4 -1 -8.5 -2t-6.5 -1.5t-3 -0.5q-10 0 -16 6l-115 178l-180 -178q-6 -6 -19 -6q-14 0 -22 8l-66 61q-6 6 -6 21z" />
<glyph unicode="&#xfc;" horiz-adv-x="1138" d="M125 274q0 171 51.5 391t124.5 425q3 28 29 28h116q25 0 25 -28q-49 -156 -80.5 -266.5t-61.5 -268t-30 -274.5q0 -85 24 -115.5t85 -30.5q69 0 138.5 52.5t121.5 133t91 168.5t58 168q23 169 78 433q6 28 33 28h110q23 0 23 -28q-87 -437 -113 -594.5t-26 -257.5 q0 -73 30 -104t97 -46q11 -3 16 -13t5.5 -17.5t0.5 -26.5q0 -28 -15 -41t-67 -13q-112 0 -164.5 60t-52.5 184q0 43 10 121q-36 -79 -74 -139.5t-88 -114t-112.5 -82.5t-134.5 -29q-121 0 -184.5 79.5t-63.5 217.5zM428 1384q0 61 41.5 106.5t95.5 45.5q44 0 71.5 -30.5 t27.5 -78.5q0 -60 -43.5 -104.5t-100.5 -44.5q-41 0 -66.5 30.5t-25.5 75.5zM791 1384q0 61 41.5 106.5t97.5 45.5q43 0 68.5 -30t25.5 -76q0 -62 -41 -107t-98 -45q-42 0 -68 30.5t-26 75.5z" />
<glyph unicode="&#xfd;" horiz-adv-x="1136" d="M49 -305q0 12 14 26l68 78q7 11 21 11q11 0 20 -9q47 -46 101 -69t135 -23q59 0 104 11.5t80.5 31.5t63 59.5t47.5 83.5t38 117t31.5 146t30.5 184q-66 -147 -163 -213t-247 -66q-121 0 -184.5 79.5t-63.5 217.5q0 166 48.5 344t128.5 386q3 28 28 28h117q25 0 25 -28 q-12 -35 -47.5 -135.5t-51.5 -151.5t-39 -135t-33 -156.5t-10 -144.5q0 -83 27 -114.5t90 -31.5q70 0 139 39.5t121.5 102.5t91.5 140t58 154q24 182 77 433q6 28 33 28h111q22 0 22 -28q-112 -541 -180 -1049q-33 -249 -153.5 -369.5t-346.5 -120.5q-242 0 -346 125 q-6 6 -6 19zM606 1300q0 19 17 33l280 226q9 6 17 6q10 0 20 -13l59 -106l5 -14q0 -22 -19 -31l-319 -180q-18 0 -21 8l-33 55q-6 6 -6 16z" />
<glyph unicode="&#xfe;" horiz-adv-x="1161" d="M0 -420q2 7 35 125t49 195q48 252 113 689t110 658q10 54 24 106t35 109.5t49.5 93t59.5 35.5h82q37 0 37 -28q-173 -341 -221 -822q49 115 103 195t111 124t113 62.5t119 18.5q123 0 188.5 -94t65.5 -236q0 -87 -17.5 -180.5t-51.5 -187.5t-88 -177.5t-122 -148 t-159.5 -102.5t-194.5 -38q-83 0 -151 31q-69 -457 -195 -457h-61q-33 0 -33 29zM309 154q53 -19 140 -19q92 0 170.5 43t131 112t90.5 157.5t55 178.5t17 175q0 91 -33 136.5t-94 45.5q-109 0 -207.5 -106.5t-230.5 -352.5q-7 -64 -19.5 -187t-19.5 -183z" />
<glyph unicode="&#xff;" horiz-adv-x="1136" d="M49 -305q0 12 14 26l68 78q7 11 21 11q11 0 20 -9q47 -46 101 -69t135 -23q59 0 104 11.5t80.5 31.5t63 59.5t47.5 83.5t38 117t31.5 146t30.5 184q-66 -147 -163 -213t-247 -66q-121 0 -184.5 79.5t-63.5 217.5q0 166 48.5 344t128.5 386q3 28 28 28h117q25 0 25 -28 q-12 -35 -47.5 -135.5t-51.5 -151.5t-39 -135t-33 -156.5t-10 -144.5q0 -83 27 -114.5t90 -31.5q70 0 139 39.5t121.5 102.5t91.5 140t58 154q24 182 77 433q6 28 33 28h111q22 0 22 -28q-112 -541 -180 -1049q-33 -249 -153.5 -369.5t-346.5 -120.5q-242 0 -346 125 q-6 6 -6 19zM436 1384q0 61 41.5 106.5t95.5 45.5q44 0 71.5 -30.5t27.5 -78.5q0 -60 -43.5 -104.5t-100.5 -44.5q-41 0 -66.5 30.5t-25.5 75.5zM799 1384q0 61 41.5 106.5t97.5 45.5q43 0 68.5 -30t25.5 -76q0 -62 -41 -107t-98 -45q-42 0 -68 30.5t-26 75.5z" />
<glyph unicode="&#x152;" horiz-adv-x="1536" d="M70 465q0 196 43 377.5t126 323.5t193 212q-196 -28 -223 -28t-27 22l4 29q7 58 165 99.5t345 41.5q160 0 252 -76q146 76 297 76q30 0 60 -2t74.5 -11t77 -24.5t56 -45t23.5 -68.5q0 -48 -31 -206.5t-61 -158.5h-98q-21 0 -21 27q43 188 43 258q0 39 -34 52t-103 13 q-46 0 -92.5 -8.5t-94.5 -28.5t-84.5 -50t-59.5 -78t-23 -107q0 -115 59 -183.5t190 -68.5h52q23 0 31 -8.5t8 -28.5l-5 -43q-3 -39 -59 -39q-80 0 -151.5 -20t-131.5 -59.5t-95.5 -107.5t-35.5 -157q0 -68 29 -118.5t77.5 -78t101 -40.5t108.5 -13q92 0 209 47.5t153 100.5 q16 16 31 16t27 -27l14 -32q1 -4 3.5 -16.5t2.5 -20.5q0 -13 -20.5 -40t-62 -60t-95 -63t-130 -50.5t-157.5 -20.5q-176 0 -301 78q-113 -74 -252 -74q-197 0 -302 133t-105 355zM233 469q0 -169 64 -247.5t195 -78.5q60 0 120 31q-49 79 -49 201q0 159 108 275.5t255 142.5 q-102 50 -160.5 123.5t-58.5 187.5q0 143 96 250q-76 35 -225 35q-43 0 -56 -5q45 -15 45 -30q0 -13 -8 -21q-87 -61 -162.5 -201t-119.5 -317.5t-44 -345.5z" />
<glyph unicode="&#x153;" horiz-adv-x="1536" d="M102 354q0 206 66 387t182.5 290.5t253.5 109.5q78 0 114 -21t36 -49q0 -15 -9 -24l-36 -60q-9 -12 -25 -12q-10 0 -39 4t-53 4q-139 0 -235.5 -167t-96.5 -454q0 -117 40.5 -172t123.5 -55q86 0 162 73t122 197t46 265q0 74 -16.5 121t-16.5 69q0 29 14 49l45 74 q3 5 9 16.5t8 14t8 5.5t14 3q37 0 55 -86q118 205 330 205q126 0 183 -76t57 -205q0 -377 -563 -561q20 -89 72.5 -126.5t142.5 -37.5q183 0 311 92q9 9 23 9q11 0 18 -17l20 -78q1 -4 2 -8.5t2 -6.5t1 -3q0 -14 -11 -25q-59 -55 -169.5 -88t-215.5 -33q-253 0 -309 263 q-63 -123 -155 -193t-210 -70q-78 0 -137 29t-94.5 81t-52.5 119t-17 148zM870 406q96 34 170 79t118.5 90.5t72.5 97t38.5 96.5t10.5 91q0 68 -21 95.5t-79 27.5q-61 0 -112.5 -36t-86.5 -95t-60 -135.5t-37 -154.5t-14 -156z" />
<glyph unicode="&#x178;" horiz-adv-x="1183" d="M268 1294q0 219 45 219h125q23 0 23 -16q0 -27 -5 -85t-5 -91q0 -205 53 -411t164 -351q253 441 336 934q3 20 28 20h131q21 0 21 -20q0 -3 -6 -27q-158 -770 -662 -1437q-26 -29 -53 -29h-105q-36 0 -36 23q0 13 18 38q165 226 248 363q-139 112 -229.5 362.5 t-90.5 507.5zM483 1780q0 61 41.5 106t96.5 45q44 0 71 -30t27 -78q0 -60 -43.5 -105t-100.5 -45q-41 0 -66.5 31t-25.5 76zM846 1780q0 61 41.5 106t97.5 45q43 0 68.5 -30t25.5 -76q0 -62 -41 -107t-98 -45q-42 0 -68 31t-26 76z" />
<glyph unicode="&#x2c6;" horiz-adv-x="919" d="M362 1309q0 11 13 24l237 221q11 11 21 11h82q5 0 16 -11l156 -221q10 -10 10 -24q0 -21 -14 -29l-78 -57q-4 -1 -8.5 -2t-7 -1.5t-3.5 -0.5q-10 0 -16 6l-115 178l-180 -178q-6 -6 -18 -6q-15 0 -23 8l-65 61q-7 7 -7 21z" />
<glyph unicode="&#x2dc;" horiz-adv-x="972" d="M375 1352q0 68 53 124t133 56q42 0 79.5 -15.5t60 -33.5t49 -33.5t49.5 -15.5q19 0 33.5 15.5t22 33.5t17.5 33.5t21 15.5q12 0 18 -6l60 -43q10 -7 10 -21q0 -64 -57.5 -121t-128.5 -57q-44 0 -82.5 15t-60.5 33t-47.5 33t-47.5 15q-20 0 -35 -15t-22 -33t-16 -33 t-19 -15q-15 0 -19 4l-61 45q-10 3 -10 19z" />
<glyph unicode="&#x2000;" horiz-adv-x="980" />
<glyph unicode="&#x2001;" horiz-adv-x="1960" />
<glyph unicode="&#x2002;" horiz-adv-x="980" />
<glyph unicode="&#x2003;" horiz-adv-x="1960" />
<glyph unicode="&#x2004;" horiz-adv-x="653" />
<glyph unicode="&#x2005;" horiz-adv-x="490" />
<glyph unicode="&#x2006;" horiz-adv-x="326" />
<glyph unicode="&#x2007;" horiz-adv-x="326" />
<glyph unicode="&#x2008;" horiz-adv-x="245" />
<glyph unicode="&#x2009;" horiz-adv-x="392" />
<glyph unicode="&#x200a;" horiz-adv-x="108" />
<glyph unicode="&#x2010;" horiz-adv-x="1136" d="M356 532q0 9 2 11l19 110q6 29 33 29h436q20 0 20 -29l-18 -110q-6 -29 -33 -29h-436q-23 0 -23 18z" />
<glyph unicode="&#x2011;" horiz-adv-x="1136" d="M356 532q0 9 2 11l19 110q6 29 33 29h436q20 0 20 -29l-18 -110q-6 -29 -33 -29h-436q-23 0 -23 18z" />
<glyph unicode="&#x2012;" horiz-adv-x="1136" d="M356 532q0 9 2 11l19 110q6 29 33 29h436q20 0 20 -29l-18 -110q-6 -29 -33 -29h-436q-23 0 -23 18z" />
<glyph unicode="&#x2013;" horiz-adv-x="1394" d="M213 535l20 118q6 29 35 29h981q19 0 19 -29l-19 -110q-6 -29 -30 -29h-981q-25 0 -25 21z" />
<glyph unicode="&#x2014;" horiz-adv-x="1949" d="M213 535l20 118q6 29 35 29h1563q22 0 22 -29l-18 -110q-10 -29 -35 -29h-1562q-25 0 -25 21z" />
<glyph unicode="&#x2018;" horiz-adv-x="522" d="M297 1485q0 31 27 37l108 22q12 4 31 4q35 0 35 -35q1 -35 3 -107t3.5 -111t4 -94.5t5.5 -101t8 -87.5q0 -42 -35 -49l-57 -11q-28 0 -37 25q-96 272 -96 508z" />
<glyph unicode="&#x2019;" horiz-adv-x="598" d="M211 1010q0 10 6 22q76 152 125 266t82 236q6 20 31 20q13 0 26 -8l105 -53q12 -6 12 -23q0 -11 -10 -34q-90 -237 -260 -467q-12 -17 -39 -17l-60 31q-18 9 -18 27z" />
<glyph unicode="&#x201a;" horiz-adv-x="499" d="M0 -283q0 11 6 23q76 152 125 266t82 236q6 20 31 20q13 0 26 -8l105 -53q12 -6 12 -23q0 -12 -2 -14q-83 -237 -268 -488q-11 -16 -39 -16l-60 31q-18 9 -18 26z" />
<glyph unicode="&#x201c;" horiz-adv-x="921" d="M297 1485q0 31 27 37l108 22q12 4 31 4q35 0 35 -35q1 -35 3 -107t3.5 -111t4 -94.5t5.5 -101t8 -87.5q0 -42 -35 -49l-57 -11q-28 0 -37 25q-96 272 -96 508zM696 1485q0 31 27 37l108 22q12 4 31 4q35 0 35 -35q12 -384 25 -501q0 -42 -35 -49l-58 -11q-27 0 -36 25 q-97 275 -97 508z" />
<glyph unicode="&#x201d;" horiz-adv-x="1079" d="M211 1010q0 10 6 22q76 152 125 266t82 236q6 20 31 20q13 0 26 -8l105 -53q12 -6 12 -23q0 -11 -10 -34q-90 -237 -260 -467q-12 -17 -39 -17l-60 31q-18 9 -18 27zM692 1010q0 10 6 22q76 152 125 266t82 236q6 20 31 20q14 0 27 -8l104 -53q12 -6 12 -23 q0 -11 -10 -34q-90 -237 -260 -467q-12 -17 -39 -17l-59 31q-19 9 -19 27z" />
<glyph unicode="&#x201e;" horiz-adv-x="880" d="M0 -283q0 11 6 23q76 152 125 266t82 236q6 20 31 20q13 0 26 -8l105 -53q12 -6 12 -23q0 -12 -2 -14q-83 -237 -268 -488q-11 -16 -39 -16l-60 31q-18 9 -18 26zM377 -283q0 11 6 23q76 152 125 266t82 236q6 20 31 20q13 0 26 -8l105 -53q12 -6 12 -23q0 -12 -2 -14 q-83 -237 -268 -488q-11 -16 -39 -16l-60 31q-18 9 -18 26z" />
<glyph unicode="&#x2022;" horiz-adv-x="956" d="M258 674q0 146 99 244t241 98q105 0 171.5 -69t66.5 -179q0 -139 -103.5 -239.5t-236.5 -100.5q-108 0 -173 69.5t-65 176.5z" />
<glyph unicode="&#x2026;" horiz-adv-x="2717" d="M164 88q0 68 42 113t103 45q43 0 70 -30t27 -79q0 -68 -43.5 -115t-100.5 -47q-44 0 -71 31.5t-27 81.5zM1249 88q0 68 42.5 113t103.5 45q43 0 69.5 -30t26.5 -79q0 -68 -43 -115t-100 -47q-44 0 -71.5 31.5t-27.5 81.5zM2335 88q0 68 42 113t103 45q43 0 69.5 -30 t26.5 -79q0 -68 -43 -115t-100 -47q-44 0 -71 31.5t-27 81.5z" />
<glyph unicode="&#x202f;" horiz-adv-x="392" />
<glyph unicode="&#x2039;" horiz-adv-x="634" d="M186 614q0 19 13 35l313 369q12 12 27 12q12 0 22 -10l51 -59l4 -15q0 -14 -10 -24l-284 -308l159 -313l4 -20q0 -19 -16 -29l-51 -29q-9 -6 -21 -6q-21 0 -30 21l-172 344q-9 15 -9 32z" />
<glyph unicode="&#x203a;" horiz-adv-x="634" d="M121 301q0 15 10 25l285 307l-160 313l-4 21q0 18 16 28l51 29q9 6 21 6q22 0 31 -20l172 -344q8 -13 8 -33t-12 -35l-314 -369q-12 -12 -26 -12q-13 0 -23 10l-51 60z" />
<glyph unicode="&#x205f;" horiz-adv-x="490" />
<glyph unicode="&#x20ac;" horiz-adv-x="1202" d="M133 549l35 100q12 27 35 27h51l33 178h-76q-21 0 -21 16q0 8 3 11l32 98q12 27 37 27h60q73 296 196.5 416t347.5 120q81 0 198.5 -16.5t117.5 -38.5l-60 -135q-7 -11 -18 -11q-2 0 -35.5 8.5t-97 17.5t-135.5 9q-56 0 -92 -4t-72.5 -17.5t-61 -38t-48.5 -66t-43 -101 t-38 -143.5h482q16 0 16 -27l-35 -98q-9 -27 -33 -27h-462l-33 -178h415q19 0 19 -27l-37 -100q-6 -27 -33 -27h-385q-10 -79 -10 -157q0 -75 13.5 -120.5t47 -68.5t74 -30t111.5 -7q93 0 169 19t115 47q6 6 13 6q11 0 14 -10l37 -121q0 -20 -52.5 -45t-143 -43.5 t-181.5 -18.5q-201 0 -288 90t-87 312q0 73 9 147h-84q-9 0 -13 3.5t-5 8.5t-1 15z" />
<glyph unicode="&#x2122;" horiz-adv-x="1536" d="M428 666l129 737h-88q-35 0 -35 31l8 39q5 22 14 31t31 9h316q14 0 14 -24l-8 -43q-9 -43 -45 -43h-86l-127 -723q-4 -20 -17 -31.5t-28 -11.5h-45q-33 0 -33 29zM729 666l141 807q6 40 45 40h132q32 0 32 -38l15 -424l163 424q8 21 18 29.5t28 8.5h135q21 0 26.5 -8.5 t5.5 -31.5l-139 -793q-4 -21 -18 -32t-29 -11h-35q-35 0 -35 29q0 11 3 14l126 727l-167 -422q-14 -39 -48 -39h-96q-28 0 -28 27l-33 434l-127 -727q-4 -21 -18 -32t-29 -11h-35q-33 0 -33 29z" />
</font>
</defs>
</svg>
